<svg width="1728" height="524" viewBox="0 0 1728 524" fill="none" xmlns="http://www.w3.org/2000/svg">
<g clip-path="url(#clip0_562_2039)">
<rect width="1728" height="524" fill="white"/>
<g filter="url(#filter0_d_562_2039)">
<rect width="1728" height="524" fill="#F26322"/>
</g>
<ellipse cx="426.5" cy="501.5" rx="325.5" ry="322.5" fill="#FFA614"/>
<path d="M598.21 368.15C612.846 359.537 622.629 326.267 627.994 309.356C635.055 287.151 637.107 267.474 642.235 245.623C644.365 236.615 650.717 224.959 644.326 220.099C639.434 216.384 625.509 219.545 619.355 219.941C598.881 221.205 576.434 231.557 556.078 238.709C546.847 241.949 536.866 248.113 529.371 256.568C519.864 267.315 520.929 273.598 526.255 284.266C534.066 299.952 545.309 311.964 555.289 325.438C565.033 338.556 572.016 354.242 583.298 365.503C587.44 369.612 596.514 378.976 602.51 373.484L598.17 368.15H598.21Z" fill="#AEAEAF"/>
<path d="M590.597 344.047C612.097 322.592 614.898 283.475 615.608 254.789C598.526 259.254 583.338 264.549 567.006 274.031C560.497 277.825 550.832 281.144 549.294 291.772C547.795 302.362 560.418 316.665 565.271 322.908C573.516 333.616 583.062 337.251 593.871 342.545L590.597 344.047Z" fill="#FBD2C0"/>
<g style="mix-blend-mode:multiply">
<path d="M641.446 217.529C614.699 247.4 627.086 304.021 597.657 329.23C587.953 337.567 570.28 334.366 564.283 325.081C559.392 338.476 579.59 363.171 587.756 368.939C604.166 380.477 615.607 351.04 622.431 334.09C628.783 318.403 635.568 300.228 639.789 283.909C642.156 274.743 649.572 220.177 645.194 220.335L641.446 217.529Z" fill="#AEAEAF"/>
</g>
<path d="M643.458 222.863C632.728 223.416 614.7 236.179 603.891 242.066C593.16 247.874 582.943 255.54 572.292 261.743C565.901 265.497 539.51 282.21 534.263 275.138C520.416 256.449 603.851 229.462 614.542 227.526C624.799 225.669 634.306 224.207 644.089 223.693C644.326 224.444 644.365 225.55 644.681 226.222L643.419 222.903L643.458 222.863Z" fill="white"/>
<g style="mix-blend-mode:multiply" opacity="0.73">
<path d="M612.491 279.525C602.116 282.726 592.215 283.674 582.076 289.206C573.989 293.671 566.02 300.98 558.407 295.251C541.088 282.252 578.21 271.03 586.968 266.644C593.043 263.602 604.483 255.621 610.282 255.502C622.038 255.225 612.649 269.647 616.16 278.103L612.491 279.486V279.525Z" fill="#F26322"/>
</g>
<path d="M603.181 370.402C619.039 348.907 629.02 325.042 635.647 299.28C642.63 272.135 647.877 243.212 651.269 215.396C651.467 213.657 649.376 212.709 647.916 212.946C618.645 217.885 589.492 224.484 561.167 233.453C546.334 238.155 522.704 245.346 518.444 262.652C517.576 266.208 524.953 265.379 525.742 262.139C529.726 245.741 558.406 239.538 572.134 235.587C596.869 228.435 621.919 222.627 647.324 218.32C646.22 217.49 645.115 216.7 643.971 215.87C640.855 241.237 635.647 267.078 630.164 292.049C624.128 319.55 613.911 345.43 597.145 368.189C594.423 371.903 601.169 373.128 603.181 370.402Z" fill="black"/>
<path d="M597.973 338.001C607.401 331.601 609.926 316.625 612.451 306.392C616.948 288.177 618.526 269.685 620.183 251.035C620.262 250.166 616.041 251.51 615.686 251.747C595.527 264.707 570.753 268.263 552.646 284.66C551.699 285.529 556.394 284.937 557.222 284.147C575.053 268.026 599.669 264.509 619.552 251.747C618.053 251.984 616.554 252.221 615.094 252.418C613.516 270.12 611.978 287.545 608.033 304.89C605.626 315.401 602.983 332.035 593.397 338.555C592.45 339.187 597.026 338.713 597.973 338.041V338.001Z" fill="black"/>
<path d="M618.015 530.146H199.538C205.811 476.331 216.146 416.352 232.36 370.755C233.504 367.554 234.648 364.393 235.871 361.351C236.029 360.877 236.226 360.442 236.384 360.007L235.95 360.995L233.543 366.448L233.109 367.475C233.464 364.591 233.859 361.746 234.372 358.941C238.198 337.011 246.562 317.453 258.357 300.463C265.379 290.269 273.624 280.983 282.855 272.646C333.744 226.615 413.905 209.506 480.614 226.694H480.653C492.172 229.657 503.297 233.648 513.79 238.706C515.289 239.417 529.531 244.514 546.494 257.197C546.494 257.197 546.533 257.197 546.533 257.237C564.246 270.434 584.957 291.81 597.383 325C603.064 340.212 607.048 357.913 608.153 378.46C609.218 397.504 617.66 503.555 617.976 525.76C617.976 527.222 618.015 528.684 618.015 530.146Z" fill="#88888A"/>
<path opacity="0.2" d="M328.026 254.748C308.419 291.771 271.14 412.125 266.011 462.66C263.802 484.313 261.988 506.914 260.528 530.147H208.258C211.532 498.458 214.688 469.852 217.055 448.752V448.673C217.173 447.488 217.331 446.302 217.449 445.157C220.014 422.358 225.3 396.162 232.361 370.755C232.716 369.333 233.15 367.871 233.545 366.449C234.255 363.999 234.965 361.549 235.714 359.139C242.224 337.565 249.956 317.098 258.358 300.464C260.173 296.789 262.067 293.272 264 289.993C263.644 284.619 272.008 278.376 282.856 272.647C301.792 262.611 328.183 254.155 328.026 254.748Z" fill="#197AA9"/>
<path d="M236.226 359.89C236.147 360.245 236.029 360.64 235.95 360.996C235.95 361.115 235.871 361.233 235.871 361.352C228.494 390.195 222.301 419.316 217.054 448.673V448.752C212.241 475.739 208.257 502.884 205.022 530.147H198C204.864 473.171 214.884 416.589 229.086 361.075C229.402 359.85 232.36 358.981 234.372 358.941C234.885 358.941 235.358 359.02 235.713 359.139C236.108 359.257 236.305 359.534 236.226 359.89Z" fill="black"/>
<path d="M618.45 530.147H611.27C609.968 486.881 608.075 443.655 605.708 400.468C604.327 375.457 604.09 349.261 597.384 325C594.938 316.11 591.664 307.496 587.127 299.278C576.989 280.865 562.866 267.431 546.534 257.237C546.534 257.197 546.494 257.197 546.494 257.197C525.468 244.04 500.733 236.177 476.038 229.618C474.145 229.144 478.129 227.129 480.614 226.694H480.654C481.167 226.576 481.601 226.576 481.916 226.655C515.408 235.584 551.544 246.292 576.16 272.331C600.855 298.448 608.864 332.152 611.073 367.159C614.505 421.449 616.911 475.778 618.45 530.147Z" fill="black"/>
<path d="M477.064 225.786C442.901 215.315 408.186 214.169 373.668 223.613C332.996 234.755 296.861 259.371 264.039 285.093C260.922 287.543 268.142 287.108 269.719 285.884C300.49 261.781 333.509 239.457 371.104 227.643C404.123 217.251 438.483 218.871 471.305 228.947C473.277 229.539 479.747 226.537 477.104 225.746L477.064 225.786Z" fill="black"/>
<path d="M465.347 426.152C312.639 446.066 333.35 343.334 333.705 340.173C334.454 333.298 235.437 356.65 243.997 330.453C252.282 305.126 277.766 288.018 281.79 285.054C290.153 278.969 281.08 313.424 373.509 262.809C426.608 233.767 470.041 292.482 481.324 357.559C483.77 371.823 479.193 277.112 546.336 279.443C577.304 280.51 583.931 300.187 595.924 319.034C614.544 348.392 605.352 355.544 607.956 363.446C617.029 391.183 560.143 464.636 474.46 428.562L465.347 426.073V426.152Z" fill="white"/>
<path d="M456.864 406.514C325.261 452.545 338.911 292.087 223.522 393.277C215.395 400.39 241.826 311.685 252.596 303.862C260.959 297.777 279.145 334.879 373.153 287.78C418.243 265.179 458.126 295.683 482.23 342.07C482.94 343.453 518.365 293.114 545.585 298.449C576.079 304.454 608.112 339.383 609.572 364.197C609.887 369.531 612.885 384.111 612.057 384.94C565.665 431.328 495.721 420.778 492.841 408.964C492.171 406.277 487.595 398.73 479.153 398.019C461.795 396.517 456.785 405.487 454.339 406.474H456.824L456.864 406.514Z" fill="#056A37"/>
<path d="M237.962 327.766C219.658 320.417 213.977 291.731 210.506 277.191C206.008 258.067 207.862 241.037 205.929 222.19C205.14 214.406 199.065 204.37 209.125 200.142C216.857 196.863 235.477 199.51 243.958 199.787C272.204 200.695 301.041 209.428 327.709 215.473C339.781 218.199 352.247 223.454 360.689 230.685C371.379 239.891 368.342 245.344 358.401 254.59C343.725 268.261 325.184 278.732 308.024 290.427C291.258 301.846 277.806 315.478 259.383 325.316C252.637 328.912 237.765 337.091 230.704 332.389L238.002 327.727L237.962 327.766Z" fill="#AEAEAF"/>
<path d="M252.875 306.904C230.349 291.06 235.399 261.781 240.803 240.326C261.475 243.487 279.543 247.28 298.163 254.195C305.579 256.961 317.098 259.371 316.704 267.313C316.27 275.215 297.097 286.121 289.602 290.823C276.781 298.923 263.881 301.767 249.048 305.837L252.835 306.943L252.875 306.904Z" fill="#FBD2C0"/>
<g style="mix-blend-mode:multiply">
<path d="M213.78 197.85C243.959 223.414 213.07 272.527 248.062 294.061C259.62 301.174 285.026 298.25 295.559 290.189C299.188 301.766 265.104 323.261 252.283 328.318C226.641 338.433 217.765 313.106 212.281 298.487C207.192 284.974 202.103 269.327 200.131 255.221C199.026 247.319 201.788 200.22 207.863 200.299L213.741 197.85H213.78Z" fill="#AEAEAF"/>
</g>
<path d="M209.717 202.473C224.51 202.868 246.602 213.734 260.251 218.712C273.861 223.651 286.209 230.171 299.582 235.465C307.629 238.626 340.372 252.89 349.406 246.687C373.194 230.408 263.328 207.807 248.89 206.226C235.043 204.725 222.104 203.539 208.612 203.184C208.099 203.856 207.823 204.764 207.152 205.357L209.717 202.473Z" fill="white"/>
<g style="mix-blend-mode:multiply" opacity="0.6">
<path d="M239.345 258.818C251.771 261.11 264.119 261.702 275.717 265.772C284.987 269.012 293.469 274.386 304.396 270.039C329.21 260.122 284.632 252.14 274.533 248.94C267.511 246.727 254.73 240.879 247.432 240.84C232.599 240.8 241.357 251.469 234.966 257.87L239.345 258.857V258.818Z" fill="#F26322"/>
</g>
<path d="M238.278 327.253C221.71 309.196 213.228 288.294 210.506 264.073C208.021 242.262 207.547 217.725 209.283 195.836C207.626 196.705 205.969 197.574 204.313 198.444C238.554 201.881 272.56 206.82 306.446 212.905C317.966 214.96 329.406 217.37 340.649 220.61C348.026 222.743 364.989 226.813 365.857 236.533C366.094 239.22 373.313 237.6 373.076 234.597C372.327 226.418 361.912 222.506 355.482 219.938C343.568 215.157 330.747 212.549 318.202 210.06C281.436 202.869 244.235 197.772 206.995 194.018C205.535 193.86 202.182 194.729 202.024 196.626C200.249 219.108 201.196 243.527 203.287 266.009C205.535 290.467 215.043 312.08 231.611 330.177C233.465 332.192 240.33 329.505 238.278 327.253Z" fill="black"/>
<path d="M249.758 301.45C231.02 292.599 239.383 252.139 241.513 237.638C239.975 238.151 238.476 238.665 236.937 239.179C260.173 248.938 287.275 249.175 308.853 262.728C310.313 263.637 314.85 261.582 313.587 260.792C291.693 247.042 264.512 246.686 241.001 236.808C239.935 236.373 236.622 236.808 236.425 238.349C234.097 254.272 225.734 294.337 245.656 303.781C247.036 304.413 251.731 302.358 249.758 301.45Z" fill="black"/>
<path d="M435.918 395.253C410.907 407.541 373.786 392.092 366.093 365.066C360.925 347.009 367.671 325.83 384.161 316.189C408.383 302.044 438.758 316.782 448.66 340.726C455.485 357.203 455.406 385.493 436.747 394.305C432.407 396.359 439.035 396.754 441.047 395.806C464.4 384.782 463.099 351.948 452.842 332.31C440.021 307.813 405.384 301.609 381.833 313.7C360.215 324.803 352.246 350.13 360.689 372.494C371.695 401.614 415.049 409.122 440.218 396.754C444.518 394.621 437.93 394.265 435.918 395.253Z" fill="black"/>
<path d="M443.098 475.463C451.895 478.821 465.189 476.372 468.74 485.973C458.641 493.322 435.997 489.608 435.918 477.952L443.137 475.463H443.098Z" fill="white"/>
<path d="M372.997 318.677C353.667 340.923 355.245 362.299 366.409 377.59C373.155 386.836 388.421 385.887 399.586 389.601C409.29 392.841 416.509 399.914 424.162 399.005C439.232 397.188 451.303 383.517 455.564 361.469C457.852 349.813 444.242 319.428 433.551 306.034C427.989 299.04 423.373 305.046 413.038 302.873C396.272 299.396 386.212 307.258 374.299 317.453L372.997 318.638V318.677Z" fill="white"/>
<path d="M496.787 343.609C494.972 354.475 494.736 363.76 496.393 372.69C498.089 381.62 501.639 390.273 507.399 399.874C514.894 408.883 513.356 415.719 525.703 412.834C539.116 409.713 564.087 401.771 570.833 392.565C575.922 375.456 575.37 360.165 571.346 347.679C566.454 323.261 538.879 305.796 512.646 318.796C504.795 321.403 503.494 330.649 499.983 338.473L496.866 343.57L496.787 343.609Z" fill="white"/>
<path d="M318.91 373.521C314.492 374.627 305.103 377.393 306.247 384.11C308.299 396.043 311.888 407.264 317.766 417.853C327.589 435.515 344.71 447.369 363.449 453.928C395.363 465.11 434.654 461.83 465.701 449.226C463.965 448.87 462.269 448.515 460.533 448.119C463.61 468.034 492.369 472.656 508.267 472.34C522.35 472.064 536.828 467.283 548.82 460.052C556.552 455.39 563.456 449.858 569.965 443.576C573.515 440.138 576.711 436.345 579.788 432.512C581.445 430.418 583.023 428.324 584.522 426.151C588.901 420.105 586.139 425.084 586.849 429.391C587.402 432.67 594.621 430.813 594.069 427.455C592.135 415.957 584.837 414.89 578.526 424.136C566.691 441.521 550.122 456.022 530.2 463.213C513.671 469.179 471.539 471.155 467.673 446.223C467.318 444.01 463.807 444.603 462.505 445.117C436.035 455.864 404.436 458.195 376.664 451.794C360.884 448.159 346.209 440.533 334.848 428.917C328.339 422.239 323.526 414.1 319.818 405.605C317.885 401.1 316.504 396.359 315.281 391.617C313.545 384.94 312.322 380.317 320.173 378.381C324.631 377.274 323.329 372.454 318.871 373.56L318.91 373.521Z" fill="black"/>
<path d="M429.251 399.757C418.639 392.842 407.87 388.378 395.364 386.204C383.017 384.031 371.498 382.135 366.251 369.214C356.822 346.139 375.403 315.873 395.443 305.402C439.39 282.485 472.645 371.387 436.391 393.554C432.21 396.082 438.285 398.256 441.086 396.557C462.191 383.676 460.495 354.002 453.631 333.495C445.78 310.104 426.411 291.968 400.808 298.251C374.811 304.652 356.744 333.851 357.02 359.573C357.138 371.15 362.582 380.752 372.72 386.204C378.046 389.049 384.397 389.8 390.275 390.669C402.662 392.526 413.156 396.833 423.689 403.669C426.174 405.289 432.604 401.812 429.291 399.678L429.251 399.757Z" fill="black"/>
<path d="M566.415 395.293C556.158 397.782 546.493 401.22 536.946 405.685C528.11 409.833 522.705 411.493 514.184 405.408C493.986 391.065 490.199 355.544 502.625 334.958C513.277 317.296 538.445 313.977 554.777 324.922C577.579 340.253 577.421 382.491 559.63 400.627C556.513 403.788 563.535 404.42 565.547 402.366C586.258 381.266 584.128 339.384 560.379 321.05C544.402 308.722 518.366 312.397 503.848 325.238C483.098 343.651 484.045 382.057 500.969 402.603C520.851 426.666 544.165 405.329 567.559 399.679C572.017 398.612 570.794 394.226 566.375 395.293H566.415Z" fill="black"/>
<g opacity="0.8">
<path d="M412.21 322.747C379.861 321.957 355.56 358.861 396.548 375.891C418.679 385.057 436.629 369.253 439.627 354.554C443.532 335.391 425.622 322.668 411.065 322.944L412.21 322.786V322.747Z" fill="#231F20"/>
</g>
<g opacity="0.8">
<path d="M549.651 348.034C541.84 341.041 533.161 337.919 524.838 337.603C499.748 336.655 485.033 355.226 498.17 376.048C504.442 386.005 508.072 388.455 516.987 389.522C525.982 390.589 539.355 386.993 546.771 382.173C554.385 372.255 562.275 359.651 546.456 347.916L549.691 348.074L549.651 348.034Z" fill="#231F20"/>
</g>
<path d="M411.498 328.16C387.197 328.16 369.84 358.229 400.295 369.964C416.705 376.286 428.856 361.785 431.42 350.959C434.734 336.892 420.611 325.71 409.96 330.215L411.498 328.16Z" fill="#231F20"/>
<path d="M548.664 362.734C547.165 352.461 537.224 344.796 526.651 343.294C516.119 341.793 504.954 346.534 500.97 360.996C496.67 376.603 517.144 386.521 528.308 385.77C542.865 384.782 552.215 369.807 546.415 361.984L548.664 362.774V362.734Z" fill="#231F20"/>
<path d="M419.034 313.58C404.754 316.78 396.548 339.263 416.234 342.028C426.845 343.569 434.341 330.728 434.222 324.169C434.065 315.595 424.044 310.972 418.443 314.963L419.034 313.58Z" fill="white"/>
<path d="M553.949 353.883C558.841 343.334 525.27 323.775 525.349 347.087C525.349 355.582 526.848 361.707 533.949 362.695C543.18 364.038 553.831 357.795 552.845 353.212L553.949 353.844V353.883Z" fill="white"/>
<path d="M391.971 356.965C385.383 356.807 379.426 365.974 387.789 369.332C392.326 371.15 396.942 366.29 397.533 363.326C398.362 359.454 394.456 356.333 391.537 357.518L391.971 356.965Z" fill="white"/>
<path d="M512.529 375.418C511.345 370.005 502.232 366.765 500.931 374.154C500.22 378.144 505.388 381.068 508.071 381.029C511.582 381.029 513.554 377.315 511.976 375.181L512.529 375.418Z" fill="white"/>
<path d="M462.27 406.791C462.665 414.575 467.872 421.49 471.698 428.009C473 430.222 476.708 429.037 478.01 427.575C481.521 423.545 485.229 419.83 489.687 416.867C490.555 416.314 491.107 415.128 490.871 414.141C489.293 407.819 486.531 402.366 479.825 400.707C474.263 399.324 467.951 402.445 463.059 404.658C458.601 406.673 462.546 410.94 466.333 409.202C469.45 407.779 472.606 406.238 476.038 406.041C480.969 405.725 482.784 412.442 483.651 416.037C484.046 415.128 484.44 414.22 484.835 413.271C479.904 416.551 475.801 420.779 471.935 425.204C474.026 425.046 476.156 424.927 478.247 424.769C475.012 419.317 469.884 412.955 469.568 406.357C469.371 402.406 462.073 403.393 462.27 406.831V406.791Z" fill="#231F20"/>
<path d="M465.663 401.771C467.202 409.713 468.306 446.183 485.19 418.801C493.475 405.367 477.064 399.124 467.951 405.011L465.663 401.771Z" fill="#231F20"/>
<path d="M459.588 408.883C467.162 404.853 480.456 405.841 489.609 406.829C492.804 392.249 457.221 392.802 457.852 409.634L459.588 408.883Z" fill="white"/>
<path d="M324.869 366.251C310.036 342.149 286.011 376.011 304.552 376.761C308.181 357.993 310.627 370.756 320.49 367.318L324.869 366.251Z" fill="white"/>
<path d="M467.003 448.239C470.159 437.492 472.369 425.757 477.734 415.839C478.562 414.338 471.698 414.931 470.593 416.946C465.189 426.863 463.019 438.598 459.863 449.346C459.271 451.361 466.372 450.333 467.003 448.239Z" fill="black"/>
<path d="M301.001 402.167C295.005 432.907 325.618 467.994 355.836 471.51C333.784 459.498 300.41 423.977 302.777 399.203L301.001 402.167Z" fill="white"/>
<path d="M497.381 473.881C523.536 481.942 559.395 469.219 584.603 439.506C579.159 468.429 526.613 500.868 497.696 477.003L497.381 473.881Z" fill="white"/>
<path d="M361.99 287.426C365.067 277.232 375.521 274.505 384.831 277.824C386.843 278.536 393.392 275.493 390.631 274.505C377.731 269.922 359.229 273.873 354.85 288.414C354.14 290.705 361.32 289.678 362.03 287.426H361.99Z" fill="#231F20"/>
<path d="M556.436 297.106C563.616 295.683 572.807 300.464 572.452 308.841C572.334 311.725 579.514 310.224 579.632 307.892C580.145 296.197 567.127 291.297 557.461 293.194C556.12 293.47 553.793 293.984 553.359 295.604C552.964 297.145 555.568 297.264 556.436 297.066V297.106Z" fill="#231F20"/>
<path d="M355.244 290.585C355.047 270.79 380.886 266.917 395.482 270.157C388.658 255.973 374.574 259.884 364.239 267.668C353.903 275.452 347.354 286.99 355.678 287.819L355.244 290.585Z" fill="white"/>
<path d="M551.977 291.772C568.349 276.481 582.826 296.198 579.947 309.078C574.582 296.948 568.783 280.63 550.715 297.106L551.977 291.772Z" fill="white"/>
<g style="mix-blend-mode:multiply" opacity="0.4">
<path d="M423.966 465.228C418.798 479.966 404.951 493.084 387.949 487.632C378.56 484.629 355.166 468.666 349.959 460.764C360.926 457.642 371.143 471.234 381.755 473.882C394.458 477.043 408.265 470.247 418.246 463.648L423.966 465.228Z" fill="#231F20"/>
</g>
<path d="M412.327 459.972C365.738 442.152 394.654 407.935 369.249 393.434C346.289 380.355 325.815 459.537 362.582 462.461C362.897 455.073 363.174 447.684 361.438 440.453C359.11 469.099 389.96 486.248 414.734 462.896L412.367 459.972H412.327Z" fill="#E84A63"/>
<path opacity="0.3" d="M374.496 415.048C375.246 386.244 344.791 408.884 346.842 430.221C348.302 445.235 369.171 466.058 391.025 455.627C372.958 441.482 379.072 433.342 375.838 418.051L374.496 415.009V415.048Z" fill="white"/>
<path d="M414.615 459.656C401.084 454.085 390.827 446.143 387.158 431.524C384.949 422.712 385.62 413.467 382.345 404.853C377.769 392.802 364.83 387.942 354.494 395.489C331.85 412.084 329.957 460.486 362.463 465.543C363.568 465.702 365.895 464.99 365.935 463.528C366.211 455.863 366.211 448.632 364.751 441.086C364.357 438.952 359.702 440.058 359.623 441.994C358.281 476.291 394.022 485.497 417.14 465.306C419.743 463.015 415.641 461.513 413.786 463.133C392.602 481.625 363.607 470.72 364.751 441.56C363.055 441.876 361.319 442.152 359.623 442.468C361.003 449.66 361.003 456.732 360.727 464.003C361.871 463.331 363.055 462.659 364.199 461.987C346.92 459.301 341.871 443.93 343.448 428.323C344.514 417.813 350.668 397.03 363.291 395.054C379.544 392.525 379.939 421.29 381.517 430.694C384.357 447.407 396.626 456.811 411.538 462.936C413.589 463.765 417.495 460.842 414.496 459.617L414.615 459.656Z" fill="#784026"/>
<path d="M365.461 401.142C377.296 397.547 377.532 434.767 380.057 443.934C371.576 439.825 369.603 389.605 352.403 415.446C353.192 408.808 360.214 401.3 366.132 401.063L365.461 401.142Z" fill="white"/>
<g style="mix-blend-mode:multiply" opacity="0.4">
<path d="M362.307 390.195C386.292 390.274 391.539 415.641 403.649 430.616C413.946 443.378 436.234 475.581 404.083 455.983C378.402 440.336 390.118 408.647 367.396 392.527L362.307 390.195Z" fill="#231F20"/>
</g>
</g>
<defs>
<filter id="filter0_d_562_2039" x="-4" y="0" width="1736" height="532" filterUnits="userSpaceOnUse" color-interpolation-filters="sRGB">
<feFlood flood-opacity="0" result="BackgroundImageFix"/>
<feColorMatrix in="SourceAlpha" type="matrix" values="0 0 0 0 0 0 0 0 0 0 0 0 0 0 0 0 0 0 127 0" result="hardAlpha"/>
<feOffset dy="4"/>
<feGaussianBlur stdDeviation="2"/>
<feComposite in2="hardAlpha" operator="out"/>
<feColorMatrix type="matrix" values="0 0 0 0 0 0 0 0 0 0 0 0 0 0 0 0 0 0 0.25 0"/>
<feBlend mode="normal" in2="BackgroundImageFix" result="effect1_dropShadow_562_2039"/>
<feBlend mode="normal" in="SourceGraphic" in2="effect1_dropShadow_562_2039" result="shape"/>
</filter>
<clipPath id="clip0_562_2039">
<rect width="1728" height="524" fill="white"/>
</clipPath>
</defs>
</svg>
