<svg width="1728" height="524" viewBox="0 0 1728 524" fill="none" xmlns="http://www.w3.org/2000/svg">
<rect width="1728" height="523" fill="#F26322"/>
<path d="M759 523H88C88 523 107.599 182.003 423.758 182C739.917 181.997 759 523 759 523Z" fill="#FFA614"/>
<path d="M597.225 361.303C611.844 352.702 621.622 319.387 627.005 302.483C634.067 280.24 636.092 260.567 641.228 238.72C643.352 229.724 649.723 218.058 643.303 213.165C638.413 209.458 624.486 212.621 618.313 213.017C597.818 214.302 575.397 224.632 555.049 231.8C545.814 235.062 535.838 241.191 528.331 249.693C518.849 260.468 519.886 266.746 525.22 277.422C533.023 293.141 544.283 305.152 554.259 318.646C563.988 331.794 571.001 347.463 582.261 358.733C586.41 362.835 595.497 372.227 601.473 366.74L597.127 361.402L597.225 361.303Z" fill="#AEAEAF"/>
<path d="M589.62 337.181C611.103 315.729 613.918 276.581 614.609 247.863C597.522 252.312 582.36 257.65 566.013 267.14C559.494 270.946 549.864 274.258 548.284 284.885C546.802 295.463 559.396 309.797 564.235 316.025C572.483 326.752 582.015 330.36 592.83 335.698L589.571 337.181H589.62Z" fill="#FBD2C0"/>
<path d="M640.439 210.544C613.672 240.448 626.068 297.094 596.633 322.302C586.954 330.656 569.273 327.443 563.248 318.15C558.359 331.546 578.558 356.26 586.707 362.043C603.103 373.609 614.561 344.15 621.376 327.146C627.747 311.428 634.513 293.238 638.71 276.927C641.081 267.733 648.489 213.164 644.093 213.312L640.34 210.495L640.439 210.544Z" fill="#AEAEAF"/>
<path d="M642.462 215.885C631.746 216.428 613.72 229.231 602.904 235.113C592.187 240.945 581.964 248.607 571.297 254.785C564.926 258.542 538.504 275.249 533.269 268.18C519.441 249.496 602.855 222.459 613.522 220.531C623.794 218.653 633.277 217.219 643.055 216.676C643.302 217.417 643.351 218.554 643.648 219.196L642.364 215.885H642.462Z" fill="white"/>
<path d="M611.497 272.628C601.126 275.841 591.199 276.78 581.075 282.316C572.976 286.765 565.025 294.08 557.419 288.346C540.085 275.347 577.223 264.126 585.964 259.727C592.039 256.663 603.496 248.705 609.275 248.556C621.029 248.26 611.645 262.693 615.152 271.195L611.497 272.579V272.628Z" fill="#F26322"/>
<path d="M602.214 363.527C618.067 342.025 628.043 318.151 634.661 292.349C641.624 265.164 646.909 236.248 650.267 208.419C650.465 206.689 648.39 205.75 646.909 205.948C617.623 210.891 588.485 217.514 560.187 226.461C545.371 231.157 521.715 238.373 517.467 255.673C516.579 259.232 523.986 258.392 524.777 255.179C528.777 238.769 557.421 232.541 571.15 228.586C595.893 221.419 620.932 215.636 646.316 211.286C645.23 210.446 644.094 209.655 642.958 208.815C639.847 234.221 634.612 260.072 629.13 285.034C623.105 312.566 612.882 338.466 596.14 361.253C593.423 364.96 600.14 366.196 602.165 363.477L602.214 363.527Z" fill="black"/>
<path d="M596.978 331.102C606.411 324.676 608.929 309.699 611.448 299.467C615.942 281.228 617.523 262.742 619.202 244.058C619.301 243.168 615.053 244.552 614.708 244.75C594.558 257.7 569.766 261.259 551.691 277.669C550.752 278.559 555.444 277.966 556.284 277.175C574.112 261.061 598.707 257.502 618.609 244.75C617.128 244.997 615.597 245.244 614.164 245.442C612.584 263.137 611.053 280.586 607.102 297.935C604.682 308.463 602.065 325.121 592.484 331.645C591.546 332.288 596.089 331.794 597.077 331.151L596.978 331.102Z" fill="black"/>
<path d="M617.03 523.43H198.63C204.902 469.553 215.223 409.546 231.471 363.924C232.607 360.711 233.743 357.547 234.978 354.532C235.126 354.038 235.324 353.643 235.472 353.198L235.027 354.186L232.607 359.623L232.163 360.661C232.509 357.795 232.904 354.928 233.447 352.11C237.25 330.164 245.645 310.59 257.449 293.587C264.461 283.404 272.709 274.112 281.944 265.758C332.812 219.691 412.966 202.588 479.687 219.79C491.194 222.755 502.306 226.759 512.825 231.801C514.306 232.493 528.579 237.633 545.519 250.287C563.248 263.485 583.941 284.887 596.337 318.103C602.016 333.327 606.017 351.023 607.103 371.585C608.19 390.665 616.585 496.788 616.931 518.982C616.931 520.465 616.931 521.898 616.931 523.381L617.03 523.43Z" fill="#88888A"/>
<path opacity="0.2" d="M327.083 247.814C307.476 284.886 270.19 405.294 265.054 455.86C262.831 477.509 261.053 500.148 259.572 523.379H207.321C210.581 491.646 213.741 463.027 216.112 441.921V441.822C216.211 440.636 216.408 439.449 216.507 438.312C219.075 415.476 224.359 389.279 231.422 363.873C231.767 362.439 232.212 361.006 232.607 359.572C233.298 357.101 234.039 354.679 234.78 352.257C241.299 330.657 249.003 310.193 257.399 293.536C259.226 289.878 261.103 286.319 263.029 283.057C262.683 277.669 271.029 271.441 281.894 265.707C300.809 255.673 327.231 247.221 327.033 247.814H327.083Z" fill="#197AA9"/>
<path d="M235.274 353.049C235.176 353.395 235.077 353.79 234.978 354.136C234.978 354.235 234.879 354.383 234.879 354.482C227.521 383.348 221.298 412.511 216.063 441.872V441.971C211.273 468.959 207.272 496.145 204.013 523.429H197C203.865 466.389 213.89 409.793 228.064 354.235C228.36 352.999 231.323 352.159 233.348 352.109C233.842 352.109 234.336 352.208 234.682 352.307C235.077 352.406 235.274 352.703 235.176 353.049H235.274Z" fill="black"/>
<path d="M617.474 523.43H610.313C609.029 480.13 607.103 436.88 604.732 393.679C603.35 368.668 603.103 342.422 596.386 318.152C593.917 309.255 590.657 300.654 586.114 292.4C575.99 273.963 561.865 260.518 545.518 250.336C524.48 237.188 499.787 229.279 475.094 222.755C473.217 222.26 477.168 220.283 479.687 219.838C480.18 219.739 480.625 219.739 480.971 219.838C514.454 228.785 550.605 239.511 575.199 265.56C599.893 291.708 607.893 325.418 610.116 360.463C613.523 414.785 615.943 469.157 617.474 523.578V523.43Z" fill="black"/>
<path d="M476.08 218.85C441.905 208.371 407.236 207.234 372.715 216.675C332.07 227.846 295.919 252.461 263.077 278.214C259.966 280.685 267.176 280.24 268.757 279.004C299.524 254.883 332.514 232.541 370.147 220.728C403.137 210.348 437.509 211.93 470.351 222.013C472.327 222.606 478.796 219.591 476.129 218.8L476.08 218.85Z" fill="black"/>
<path d="M464.377 419.331C311.675 439.251 332.417 336.439 332.763 333.276C333.503 326.405 234.484 349.785 243.077 323.538C251.374 298.181 276.857 281.079 280.858 278.113C289.204 272.033 280.166 306.485 372.568 255.87C425.658 226.806 469.069 285.577 480.378 350.675C482.847 364.959 478.254 270.155 545.37 272.478C576.336 273.566 582.953 293.238 594.954 312.12C613.573 341.481 604.387 348.648 607.004 356.557C616.091 384.336 559.199 457.836 473.513 421.704L464.426 419.232V419.331H464.377Z" fill="white"/>
<path d="M455.438 399.66C324.12 445.727 337.75 285.133 222.582 386.413C214.482 393.531 240.855 304.757 251.571 296.947C259.918 290.867 278.042 327.988 371.876 280.833C416.867 258.195 456.672 288.742 480.724 335.155C481.415 336.539 516.775 286.171 543.938 291.51C574.36 297.54 606.313 332.486 607.794 357.299C608.091 362.638 611.103 377.219 610.264 378.059C563.989 424.473 494.206 413.945 491.292 402.082C490.601 399.413 486.057 391.85 477.612 391.109C460.278 389.626 455.29 398.572 452.87 399.561H455.388L455.438 399.66Z" fill="#3AA508"/>
<path d="M237.051 320.869C218.729 313.504 213.049 284.786 209.592 270.254C205.098 251.125 206.926 234.072 205 215.19C204.209 207.381 198.135 197.347 208.21 193.145C215.963 189.883 234.582 192.503 243.027 192.799C271.276 193.689 300.117 202.438 326.786 208.518C338.836 211.236 351.331 216.525 359.776 223.742C370.443 232.935 367.431 238.422 357.504 247.665C342.837 261.357 324.267 271.836 307.13 283.55C290.388 294.968 276.906 308.611 258.485 318.447C251.719 322.055 236.854 330.211 229.791 325.515L237.101 320.869H237.051Z" fill="#AEAEAF"/>
<path d="M251.917 300.01C229.396 284.144 234.434 254.832 239.866 233.38C260.559 236.544 278.585 240.35 297.204 247.27C304.612 250.038 316.119 252.46 315.724 260.418C315.279 268.326 296.117 279.25 288.61 283.946C275.77 292.052 262.88 294.919 248.064 298.972L251.867 300.06L251.917 300.01Z" fill="#FBD2C0"/>
<path d="M212.852 190.872C243.027 216.476 212.161 265.608 247.126 287.159C258.682 294.276 284.067 291.36 294.636 283.303C298.241 294.87 264.164 316.421 251.373 321.462C225.742 331.595 216.852 306.238 211.37 291.607C206.284 278.064 201.197 262.444 199.221 248.308C198.135 240.399 200.901 193.244 206.975 193.343L212.852 190.872Z" fill="#AEAEAF"/>
<path d="M208.803 195.521C223.57 195.916 245.695 206.79 259.326 211.783C272.956 216.725 285.303 223.25 298.637 228.539C306.687 231.702 339.43 245.987 348.468 239.759C372.272 223.448 262.387 200.859 247.967 199.277C234.139 197.794 221.199 196.608 207.717 196.213C207.223 196.905 206.927 197.794 206.235 198.387L208.803 195.521Z" fill="white"/>
<path d="M238.434 251.868C250.879 254.142 263.226 254.735 274.782 258.837C284.067 262.1 292.512 267.438 303.475 263.088C328.267 253.153 283.721 245.195 273.597 241.982C266.584 239.758 253.793 233.925 246.484 233.876C231.668 233.876 240.409 244.503 234.038 250.929L238.434 251.917V251.868Z" fill="#F26322"/>
<path d="M237.347 320.375C220.803 302.284 212.309 281.376 209.592 257.156C207.123 235.309 206.629 210.792 208.358 188.846C206.679 189.735 205.049 190.576 203.37 191.465C237.594 194.925 271.622 199.868 305.5 205.948C317.007 208.024 328.465 210.396 339.676 213.659C347.034 215.784 364.023 219.887 364.863 229.575C365.11 232.244 372.32 230.662 372.073 227.647C371.332 219.442 360.912 215.537 354.492 212.967C342.59 208.172 329.749 205.552 317.205 203.081C280.511 195.914 243.323 190.773 206.086 187.017C204.604 186.868 201.296 187.709 201.098 189.636C199.32 212.126 200.258 236.594 202.382 259.084C204.654 283.551 214.136 305.201 230.68 323.292C232.557 325.318 239.422 322.6 237.347 320.375Z" fill="black"/>
<path d="M248.805 294.524C230.088 285.677 238.434 245.194 240.558 230.662C239.027 231.157 237.545 231.7 235.965 232.195C259.176 241.982 286.289 242.179 307.871 255.772C309.353 256.662 313.847 254.635 312.612 253.844C290.734 240.103 263.522 239.708 240.015 229.822C238.928 229.377 235.619 229.822 235.422 231.354C233.1 247.27 224.754 287.407 244.657 296.847C246.04 297.49 250.731 295.414 248.756 294.524H248.805Z" fill="black"/>
<path d="M434.943 388.438C409.953 400.745 372.815 385.274 365.111 358.237C359.925 340.146 366.691 318.99 383.186 309.302C407.385 295.166 437.758 309.895 447.684 333.868C454.5 350.378 454.45 378.651 435.782 387.499C431.436 389.575 438.054 389.97 440.079 388.981C463.439 377.959 462.105 345.089 451.882 325.416C439.042 300.899 404.422 294.671 380.865 306.781C359.234 317.903 351.282 343.26 359.727 365.602C370.741 394.765 414.102 402.278 439.239 389.871C443.536 387.746 436.968 387.4 434.943 388.388V388.438Z" fill="black"/>
<path d="M442.152 468.663C450.943 472.024 464.227 469.553 467.783 479.191C457.708 486.556 435.04 482.849 434.941 471.184L442.152 468.713V468.663Z" fill="white"/>
<path d="M372.023 311.776C352.713 334.019 354.293 355.421 365.455 370.744C372.221 379.987 387.481 379.048 398.642 382.755C408.322 386.018 415.582 393.086 423.237 392.147C438.299 390.318 450.35 376.626 454.646 354.581C456.918 342.916 443.337 312.517 432.62 299.122C427.039 292.103 422.446 298.133 412.125 295.959C395.383 292.499 385.308 300.358 373.406 310.54L372.122 311.726L372.023 311.776Z" fill="white"/>
<path d="M495.835 336.738C494.008 347.612 493.761 356.905 495.44 365.851C497.119 374.798 500.675 383.448 506.453 393.037C513.96 402.033 512.429 408.904 524.776 405.987C538.209 402.873 563.149 394.915 569.915 385.722C575.002 368.619 574.458 353.296 570.409 340.791C565.519 316.373 537.962 298.875 511.738 311.875C503.885 314.495 502.601 323.738 499.095 331.548L495.984 336.639H495.885L495.835 336.738Z" fill="white"/>
<path d="M317.945 366.69C313.55 367.777 304.117 370.545 305.303 377.267C307.377 389.229 310.933 400.45 316.81 411.027C326.637 428.723 343.725 440.586 362.492 447.11C394.395 458.281 433.707 455.019 464.721 442.415C462.993 442.069 461.314 441.723 459.536 441.327C462.598 461.247 491.39 465.893 507.243 465.547C521.318 465.251 535.788 460.505 547.789 453.239C555.543 448.593 562.407 443.057 568.926 436.73C572.482 433.27 575.692 429.514 578.754 425.658C580.433 423.582 581.964 421.457 583.495 419.282C587.891 413.252 585.125 418.194 585.816 422.544C586.36 425.806 593.57 423.978 593.027 420.616C591.101 409.1 583.792 408.062 577.47 417.305C565.617 434.704 549.073 449.236 529.17 456.403C512.626 462.384 470.499 464.361 466.647 439.399C466.302 437.175 462.795 437.768 461.462 438.312C434.991 449.087 403.384 451.411 375.629 444.985C359.874 441.327 345.157 433.715 333.798 422.099C327.279 415.426 322.489 407.271 318.785 398.769C316.859 394.271 315.476 389.526 314.241 384.781C312.513 378.108 311.278 373.461 319.131 371.534C323.575 370.446 322.291 365.602 317.847 366.69H317.945Z" fill="black"/>
<path d="M428.274 392.937C417.656 386.017 406.89 381.568 394.395 379.393C382.048 377.219 370.542 375.34 365.307 362.39C355.874 339.307 374.443 309.007 394.494 298.528C438.448 275.593 471.685 364.565 435.435 386.758C431.237 389.279 437.312 391.454 440.127 389.773C461.215 376.873 459.535 347.166 452.671 326.653C444.818 303.224 425.459 285.083 399.877 291.361C373.9 297.787 355.824 326.999 356.071 352.751C356.17 364.318 361.652 373.956 371.776 379.393C377.11 382.26 383.431 383.002 389.308 383.842C401.704 385.72 412.174 390.021 422.693 396.842C425.163 398.473 431.583 394.963 428.274 392.838V392.937Z" fill="black"/>
<path d="M565.42 388.44C555.147 390.912 545.517 394.372 535.936 398.82C527.096 402.972 521.713 404.653 513.169 398.524C492.97 384.189 489.167 348.601 501.613 328.038C512.28 310.343 537.418 307.031 553.764 318.004C576.581 333.327 576.383 375.638 558.604 393.778C555.493 396.942 562.506 397.584 564.531 395.508C585.224 374.402 583.1 332.487 559.345 314.149C543.393 301.792 517.317 305.499 502.798 318.35C482.056 336.787 482.994 375.193 499.934 395.756C519.836 419.827 543.146 398.474 566.506 392.839C570.951 391.752 569.716 387.402 565.321 388.44H565.42Z" fill="black"/>
<path d="M411.236 315.877C378.888 315.086 354.59 352.01 395.581 369.063C417.706 378.256 435.633 362.439 438.646 347.709C442.547 328.531 424.62 315.778 410.101 316.075L411.236 315.927V315.877Z" fill="#231F20"/>
<path d="M548.678 341.186C540.875 334.167 532.183 331.053 523.886 330.756C498.798 329.817 484.081 348.402 497.218 369.212C503.49 379.196 507.095 381.618 516.034 382.706C525.022 383.793 538.406 380.185 545.814 375.341C553.419 365.406 561.321 352.802 545.518 341.037L548.728 341.186H548.678Z" fill="#231F20"/>
<path d="M410.546 321.264C386.248 321.264 368.914 351.366 399.336 363.081C415.732 369.408 427.881 354.876 430.449 344.051C433.758 329.964 419.633 318.793 409.015 323.291L410.546 321.215V321.264Z" fill="#231F20"/>
<path d="M547.691 355.866C546.21 345.585 536.234 337.924 525.665 336.392C515.146 334.909 503.984 339.654 499.984 354.087C495.687 369.707 516.133 379.642 527.295 378.9C541.864 377.912 551.198 362.935 545.419 355.076L547.691 355.866Z" fill="#231F20"/>
<path d="M418.052 306.685C403.78 309.898 395.582 332.388 415.237 335.156C425.855 336.689 433.362 323.837 433.214 317.263C433.066 308.663 423.04 304.066 417.46 308.069L418.052 306.685Z" fill="white"/>
<path d="M552.976 347.019C557.865 336.442 524.282 316.868 524.381 340.198C524.381 348.7 525.863 354.829 532.974 355.818C542.209 357.152 552.877 350.924 551.889 346.327L552.976 346.97V347.019Z" fill="white"/>
<path d="M391.038 350.082C384.47 349.934 378.494 359.078 386.841 362.439C391.384 364.268 395.977 359.375 396.57 356.409C397.409 352.554 393.508 349.39 390.594 350.576L391.038 350.033V350.082Z" fill="white"/>
<path d="M511.54 368.569C510.355 363.132 501.268 359.919 499.935 367.284C499.243 371.287 504.379 374.204 507.096 374.154C510.602 374.154 512.578 370.447 510.997 368.322L511.54 368.569Z" fill="white"/>
<path d="M461.313 399.957C461.708 407.767 466.894 414.687 470.746 421.212C472.03 423.436 475.734 422.25 477.068 420.767C480.574 416.714 484.278 413.006 488.723 410.041C489.612 409.497 490.155 408.311 489.908 407.322C488.328 400.995 485.562 395.558 478.845 393.878C473.265 392.494 466.993 395.608 462.104 397.832C457.659 399.858 461.61 404.109 465.363 402.379C468.474 400.946 471.635 399.414 475.043 399.216C479.981 398.919 481.809 405.642 482.648 409.2C483.043 408.311 483.438 407.372 483.833 406.432C478.895 409.695 474.796 413.946 470.944 418.394C473.018 418.246 475.141 418.098 477.265 417.949C474.055 412.512 468.919 406.136 468.573 399.512C468.376 395.558 461.066 396.547 461.264 400.007L461.313 399.957Z" fill="#231F20"/>
<path d="M464.722 394.915C466.253 402.873 467.389 439.351 484.23 411.967C492.527 398.523 476.081 392.295 466.994 398.177L464.722 394.915Z" fill="#231F20"/>
<path d="M458.648 402.032C466.204 397.979 479.489 398.968 488.675 399.956C491.885 385.375 456.278 385.918 456.92 402.774L458.648 402.032Z" fill="white"/>
<path d="M323.921 359.375C309.105 335.254 285.054 369.162 303.624 369.903C307.229 351.12 309.698 363.873 319.575 360.462L323.971 359.375H323.921Z" fill="white"/>
<path d="M466.055 441.427C469.216 430.652 471.438 418.937 476.772 409.002C477.611 407.519 470.747 408.112 469.611 410.089C464.228 420.025 462.055 431.739 458.894 442.515C458.301 444.541 465.413 443.503 466.055 441.427Z" fill="black"/>
<path d="M300.069 395.31C294.093 426.055 324.663 461.199 354.888 464.708C332.862 452.697 299.476 417.158 301.847 392.345L300.069 395.31Z" fill="white"/>
<path d="M496.427 467.081C522.602 475.137 558.456 462.434 583.643 432.678C578.211 461.643 525.664 494.069 496.773 470.195L496.476 467.081H496.427Z" fill="white"/>
<path d="M361.061 280.486C364.123 270.304 374.593 267.535 383.877 270.897C385.902 271.589 392.421 268.573 389.656 267.585C376.766 262.988 358.246 266.942 353.9 281.524C353.209 283.798 360.37 282.809 361.061 280.535V280.486Z" fill="#231F20"/>
<path d="M555.444 290.176C562.605 288.742 571.791 293.537 571.446 301.94C571.347 304.807 578.508 303.324 578.607 301.001C579.1 289.286 566.112 284.393 556.432 286.271C555.099 286.568 552.778 287.062 552.333 288.693C551.938 290.225 554.555 290.374 555.395 290.176H555.444Z" fill="#231F20"/>
<path d="M354.294 283.651C354.097 263.83 379.926 259.974 394.544 263.187C387.729 249.001 373.654 252.906 363.283 260.716C352.961 268.525 346.393 280.042 354.739 280.883L354.294 283.651Z" fill="white"/>
<path d="M551 284.837C567.347 269.514 581.867 289.286 578.953 302.137C573.57 289.978 567.792 273.666 549.716 290.175L551 284.837Z" fill="white"/>
<path d="M422.991 458.429C417.806 473.159 403.978 486.307 386.989 480.87C377.605 477.855 354.196 461.889 349.011 453.981C359.974 450.867 370.197 464.46 380.815 467.129C393.508 470.292 407.336 463.471 417.312 456.897L423.041 458.479L422.991 458.429Z" fill="#231F20"/>
<path d="M411.385 453.19C364.814 435.347 393.705 401.093 368.32 386.61C345.356 373.511 324.91 452.746 361.653 455.662C361.95 448.248 362.246 440.883 360.517 433.617C358.196 462.285 389.013 479.437 413.805 456.057L411.435 453.141L411.385 453.19Z" fill="#E84A63"/>
<path opacity="0.3" d="M373.555 408.212C374.296 379.395 343.874 402.033 345.899 423.387C347.38 438.413 368.221 459.272 390.099 448.793C372.024 434.656 378.148 426.501 374.938 411.178L373.604 408.113L373.555 408.212Z" fill="white"/>
<path d="M413.656 452.846C400.124 447.26 389.852 439.302 386.197 424.672C383.975 415.873 384.666 406.581 381.407 397.98C376.814 385.919 363.875 381.075 353.553 388.589C330.934 405.197 329.008 453.637 361.504 458.679C362.591 458.827 364.912 458.135 364.961 456.652C365.257 448.991 365.257 441.724 363.776 434.211C363.381 432.086 358.738 433.173 358.64 435.101C357.306 469.405 393.013 478.648 416.125 458.431C418.743 456.158 414.644 454.625 412.767 456.257C391.58 474.743 362.591 463.869 363.726 434.656C362.047 434.953 360.319 435.249 358.59 435.546C359.973 442.762 359.973 449.831 359.677 457.097C360.813 456.405 361.998 455.762 363.134 455.07C345.849 452.401 340.811 436.979 342.392 421.36C343.478 410.832 349.602 390.022 362.245 388.045C378.493 385.524 378.888 414.292 380.468 423.732C383.283 440.439 395.581 449.88 410.495 456.009C412.569 456.85 416.471 453.933 413.458 452.698H413.557L413.656 452.846Z" fill="#784026"/>
<path d="M364.518 394.32C376.371 390.712 376.568 427.981 379.137 437.125C370.642 433.023 368.667 382.754 351.48 408.605C352.27 401.981 359.283 394.468 365.21 394.221L364.518 394.32Z" fill="white"/>
<path d="M361.356 383.347C385.358 383.446 390.593 408.802 402.692 423.779C412.965 436.532 435.287 468.76 403.137 449.186C377.456 433.517 389.161 401.833 366.443 385.67L361.356 383.347Z" fill="#231F20"/>
<path d="M1127.5 43L1038 0H1213L1127.5 43Z" fill="#FBF9BA"/>
</svg>
