<svg width="1728" height="524" viewBox="0 0 1728 524" fill="none" xmlns="http://www.w3.org/2000/svg">
<g filter="url(#filter0_d_731_3966)">
<rect width="1728" height="524" fill="#F26322"/>
</g>
<path d="M752 501.5C752 679.612 597.269 561.5 417.5 561.5C237.731 561.5 101 679.612 101 501.5C101 323.388 246.731 179 426.5 179C606.269 179 752 323.388 752 501.5Z" fill="#FFA614"/>
<path d="M596.225 361.303C610.844 352.702 620.622 319.387 626.005 302.483C633.067 280.24 635.092 260.567 640.228 238.72C642.352 229.724 648.723 218.058 642.303 213.165C637.413 209.458 623.486 212.621 617.313 213.017C596.818 214.302 574.397 224.632 554.049 231.8C544.814 235.062 534.838 241.191 527.331 249.693C517.849 260.468 518.886 266.746 524.22 277.422C532.023 293.141 543.283 305.152 553.259 318.646C562.988 331.794 570.001 347.463 581.261 358.733C585.41 362.835 594.497 372.227 600.473 366.74L596.127 361.402L596.225 361.303Z" fill="#AEAEAF"/>
<path d="M588.62 337.181C610.103 315.729 612.918 276.581 613.609 247.863C596.522 252.312 581.36 257.65 565.013 267.14C558.494 270.946 548.864 274.258 547.284 284.885C545.802 295.463 558.396 309.797 563.235 316.025C571.483 326.752 581.015 330.36 591.83 335.698L588.571 337.181H588.62Z" fill="#FBD2C0"/>
<path d="M639.439 210.544C612.672 240.448 625.068 297.094 595.633 322.302C585.954 330.656 568.273 327.443 562.248 318.15C557.359 331.546 577.558 356.26 585.707 362.043C602.103 373.609 613.561 344.15 620.376 327.146C626.747 311.428 633.513 293.238 637.71 276.927C640.081 267.733 647.489 213.164 643.093 213.312L639.34 210.495L639.439 210.544Z" fill="#AEAEAF"/>
<path d="M641.462 215.885C630.746 216.428 612.72 229.231 601.904 235.113C591.187 240.945 580.964 248.607 570.297 254.785C563.926 258.542 537.504 275.249 532.269 268.18C518.441 249.496 601.855 222.459 612.522 220.531C622.794 218.653 632.277 217.219 642.055 216.676C642.302 217.417 642.351 218.554 642.648 219.196L641.364 215.885H641.462Z" fill="white"/>
<path d="M610.497 272.628C600.126 275.841 590.199 276.78 580.075 282.316C571.976 286.765 564.025 294.08 556.419 288.346C539.085 275.347 576.223 264.126 584.964 259.727C591.039 256.663 602.496 248.705 608.275 248.556C620.029 248.26 610.645 262.693 614.152 271.195L610.497 272.579V272.628Z" fill="#F26322"/>
<path d="M601.214 363.527C617.067 342.025 627.043 318.151 633.661 292.349C640.624 265.164 645.909 236.248 649.267 208.419C649.465 206.689 647.39 205.75 645.909 205.948C616.623 210.891 587.485 217.514 559.187 226.461C544.371 231.157 520.715 238.373 516.467 255.673C515.579 259.232 522.986 258.392 523.777 255.179C527.777 238.769 556.421 232.541 570.15 228.586C594.893 221.419 619.932 215.636 645.316 211.286C644.23 210.446 643.094 209.655 641.958 208.815C638.847 234.221 633.612 260.072 628.13 285.034C622.105 312.566 611.882 338.466 595.14 361.253C592.423 364.96 599.14 366.196 601.165 363.477L601.214 363.527Z" fill="black"/>
<path d="M595.978 331.102C605.411 324.676 607.929 309.699 610.448 299.467C614.942 281.228 616.523 262.742 618.202 244.058C618.301 243.168 614.053 244.552 613.708 244.75C593.558 257.7 568.766 261.259 550.691 277.669C549.752 278.559 554.444 277.966 555.284 277.175C573.112 261.061 597.707 257.502 617.609 244.75C616.128 244.997 614.597 245.244 613.164 245.442C611.584 263.137 610.053 280.586 606.102 297.935C603.682 308.463 601.065 325.121 591.484 331.645C590.546 332.288 595.089 331.794 596.077 331.151L595.978 331.102Z" fill="black"/>
<path d="M616.03 523.43H197.63C203.902 469.553 214.223 409.546 230.471 363.924C231.607 360.711 232.743 357.547 233.978 354.532C234.126 354.038 234.324 353.643 234.472 353.198L234.027 354.186L231.607 359.623L231.163 360.661C231.509 357.795 231.904 354.928 232.447 352.11C236.25 330.164 244.645 310.59 256.449 293.587C263.461 283.404 271.709 274.112 280.944 265.758C331.812 219.691 411.966 202.588 478.687 219.79C490.194 222.755 501.306 226.759 511.825 231.801C513.306 232.493 527.579 237.633 544.519 250.287C562.248 263.485 582.941 284.887 595.337 318.103C601.016 333.327 605.017 351.023 606.103 371.585C607.19 390.665 615.585 496.788 615.931 518.982C615.931 520.465 615.931 521.898 615.931 523.381L616.03 523.43Z" fill="#88888A"/>
<path opacity="0.2" d="M326.083 247.814C306.476 284.886 269.19 405.294 264.054 455.86C261.831 477.509 260.053 500.148 258.572 523.379H206.321C209.581 491.646 212.741 463.027 215.112 441.921V441.822C215.211 440.636 215.408 439.449 215.507 438.312C218.075 415.476 223.359 389.279 230.422 363.873C230.767 362.439 231.212 361.006 231.607 359.572C232.298 357.101 233.039 354.679 233.78 352.257C240.299 330.657 248.003 310.193 256.399 293.536C258.226 289.878 260.103 286.319 262.029 283.057C261.683 277.669 270.029 271.441 280.894 265.707C299.809 255.673 326.231 247.221 326.033 247.814H326.083Z" fill="#197AA9"/>
<path d="M234.274 353.049C234.176 353.395 234.077 353.79 233.978 354.136C233.978 354.235 233.879 354.383 233.879 354.482C226.521 383.348 220.298 412.511 215.063 441.872V441.971C210.273 468.959 206.272 496.145 203.013 523.429H196C202.865 466.389 212.89 409.793 227.064 354.235C227.36 352.999 230.323 352.159 232.348 352.109C232.842 352.109 233.336 352.208 233.682 352.307C234.077 352.406 234.274 352.703 234.176 353.049H234.274Z" fill="black"/>
<path d="M616.474 523.43H609.313C608.029 480.13 606.103 436.88 603.732 393.679C602.35 368.668 602.103 342.422 595.386 318.152C592.917 309.255 589.657 300.654 585.114 292.4C574.99 273.963 560.865 260.518 544.518 250.336C523.48 237.188 498.787 229.279 474.094 222.755C472.217 222.26 476.168 220.283 478.687 219.838C479.18 219.739 479.625 219.739 479.971 219.838C513.454 228.785 549.605 239.511 574.199 265.56C598.893 291.708 606.893 325.418 609.116 360.463C612.523 414.785 614.943 469.157 616.474 523.578V523.43Z" fill="black"/>
<path d="M475.08 218.85C440.905 208.371 406.236 207.234 371.715 216.675C331.07 227.846 294.919 252.461 262.077 278.214C258.966 280.685 266.176 280.24 267.757 279.004C298.524 254.883 331.514 232.541 369.147 220.728C402.137 210.348 436.509 211.93 469.351 222.013C471.327 222.606 477.796 219.591 475.129 218.8L475.08 218.85Z" fill="black"/>
<path d="M463.377 419.331C310.675 439.251 331.417 336.439 331.763 333.276C332.503 326.405 233.484 349.785 242.077 323.538C250.374 298.181 275.857 281.079 279.858 278.113C288.204 272.033 279.166 306.485 371.568 255.87C424.658 226.806 468.069 285.577 479.378 350.675C481.847 364.959 477.254 270.155 544.37 272.478C575.336 273.566 581.953 293.238 593.954 312.12C612.573 341.481 603.387 348.648 606.004 356.557C615.091 384.336 558.199 457.836 472.513 421.704L463.426 419.232V419.331H463.377Z" fill="white"/>
<path d="M454.438 399.66C323.12 445.727 336.75 285.133 221.582 386.413C213.482 393.531 239.855 304.757 250.571 296.947C258.918 290.867 277.042 327.988 370.876 280.833C415.867 258.195 455.672 288.742 479.724 335.155C480.415 336.539 515.775 286.171 542.938 291.51C573.36 297.54 605.313 332.486 606.794 357.299C607.091 362.638 610.103 377.219 609.264 378.059C562.989 424.473 493.206 413.945 490.292 402.082C489.601 399.413 485.057 391.85 476.612 391.109C459.278 389.626 454.29 398.572 451.87 399.561H454.388L454.438 399.66Z" fill="#3AA508"/>
<path d="M236.051 320.869C217.729 313.504 212.049 284.786 208.592 270.254C204.098 251.125 205.926 234.072 204 215.19C203.209 207.381 197.135 197.347 207.21 193.145C214.963 189.883 233.582 192.503 242.027 192.799C270.276 193.689 299.117 202.438 325.786 208.518C337.836 211.236 350.331 216.525 358.776 223.742C369.443 232.935 366.431 238.422 356.504 247.665C341.837 261.357 323.267 271.836 306.13 283.55C289.388 294.968 275.906 308.611 257.485 318.447C250.719 322.055 235.854 330.211 228.791 325.515L236.101 320.869H236.051Z" fill="#AEAEAF"/>
<path d="M250.917 300.01C228.396 284.144 233.434 254.832 238.866 233.38C259.559 236.544 277.585 240.35 296.204 247.27C303.612 250.038 315.119 252.46 314.724 260.418C314.279 268.326 295.117 279.25 287.61 283.946C274.77 292.052 261.88 294.919 247.064 298.972L250.867 300.06L250.917 300.01Z" fill="#FBD2C0"/>
<path d="M211.852 190.872C242.027 216.476 211.161 265.608 246.126 287.159C257.682 294.276 283.067 291.36 293.636 283.303C297.241 294.87 263.164 316.421 250.373 321.462C224.742 331.595 215.852 306.238 210.37 291.607C205.284 278.064 200.197 262.444 198.221 248.308C197.135 240.399 199.901 193.244 205.975 193.343L211.852 190.872Z" fill="#AEAEAF"/>
<path d="M207.803 195.521C222.57 195.916 244.695 206.79 258.326 211.783C271.956 216.725 284.303 223.25 297.637 228.539C305.687 231.702 338.43 245.987 347.468 239.759C371.272 223.448 261.387 200.859 246.967 199.277C233.139 197.794 220.199 196.608 206.717 196.213C206.223 196.905 205.927 197.794 205.235 198.387L207.803 195.521Z" fill="white"/>
<path d="M237.434 251.868C249.879 254.142 262.226 254.735 273.782 258.837C283.067 262.1 291.512 267.438 302.475 263.088C327.267 253.153 282.721 245.195 272.597 241.982C265.584 239.758 252.793 233.925 245.484 233.876C230.668 233.876 239.409 244.503 233.038 250.929L237.434 251.917V251.868Z" fill="#F26322"/>
<path d="M236.347 320.375C219.803 302.284 211.309 281.376 208.592 257.156C206.123 235.309 205.629 210.792 207.358 188.846C205.679 189.735 204.049 190.576 202.37 191.465C236.594 194.925 270.622 199.868 304.5 205.948C316.007 208.024 327.465 210.396 338.676 213.659C346.034 215.784 363.023 219.887 363.863 229.575C364.11 232.244 371.32 230.662 371.073 227.647C370.332 219.442 359.912 215.537 353.492 212.967C341.59 208.172 328.749 205.552 316.205 203.081C279.511 195.914 242.323 190.773 205.086 187.017C203.604 186.868 200.296 187.709 200.098 189.636C198.32 212.126 199.258 236.594 201.382 259.084C203.654 283.551 213.136 305.201 229.68 323.292C231.557 325.318 238.422 322.6 236.347 320.375Z" fill="black"/>
<path d="M247.805 294.524C229.088 285.677 237.434 245.194 239.558 230.662C238.027 231.157 236.545 231.7 234.965 232.195C258.176 241.982 285.289 242.179 306.871 255.772C308.353 256.662 312.847 254.635 311.612 253.844C289.734 240.103 262.522 239.708 239.015 229.822C237.928 229.377 234.619 229.822 234.422 231.354C232.1 247.27 223.754 287.407 243.657 296.847C245.04 297.49 249.731 295.414 247.756 294.524H247.805Z" fill="black"/>
<path d="M433.943 388.438C408.953 400.745 371.815 385.274 364.111 358.237C358.925 340.146 365.691 318.99 382.186 309.302C406.385 295.166 436.758 309.895 446.684 333.868C453.5 350.378 453.45 378.651 434.782 387.499C430.436 389.575 437.054 389.97 439.079 388.981C462.439 377.959 461.105 345.089 450.882 325.416C438.042 300.899 403.422 294.671 379.865 306.781C358.234 317.903 350.282 343.26 358.727 365.602C369.741 394.765 413.102 402.278 438.239 389.871C442.536 387.746 435.968 387.4 433.943 388.388V388.438Z" fill="black"/>
<path d="M441.152 468.663C449.943 472.024 463.227 469.553 466.783 479.191C456.708 486.556 434.04 482.849 433.941 471.184L441.152 468.713V468.663Z" fill="white"/>
<path d="M371.023 311.776C351.713 334.019 353.293 355.421 364.455 370.744C371.221 379.987 386.481 379.048 397.642 382.755C407.322 386.018 414.582 393.086 422.237 392.147C437.299 390.318 449.35 376.626 453.646 354.581C455.918 342.916 442.337 312.517 431.62 299.122C426.039 292.103 421.446 298.133 411.125 295.959C394.383 292.499 384.308 300.358 372.406 310.54L371.122 311.726L371.023 311.776Z" fill="white"/>
<path d="M494.835 336.738C493.008 347.612 492.761 356.905 494.44 365.851C496.119 374.798 499.675 383.448 505.453 393.037C512.96 402.033 511.429 408.904 523.776 405.987C537.209 402.873 562.149 394.915 568.915 385.722C574.002 368.619 573.458 353.296 569.409 340.791C564.519 316.373 536.962 298.875 510.738 311.875C502.885 314.495 501.601 323.738 498.095 331.548L494.984 336.639H494.885L494.835 336.738Z" fill="white"/>
<path d="M316.945 366.69C312.55 367.777 303.117 370.545 304.303 377.267C306.377 389.229 309.933 400.45 315.81 411.027C325.637 428.723 342.725 440.586 361.492 447.11C393.395 458.281 432.707 455.019 463.721 442.415C461.993 442.069 460.314 441.723 458.536 441.327C461.598 461.247 490.39 465.893 506.243 465.547C520.318 465.251 534.788 460.505 546.789 453.239C554.543 448.593 561.407 443.057 567.926 436.73C571.482 433.27 574.692 429.514 577.754 425.658C579.433 423.582 580.964 421.457 582.495 419.282C586.891 413.252 584.125 418.194 584.816 422.544C585.36 425.806 592.57 423.978 592.027 420.616C590.101 409.1 582.792 408.062 576.47 417.305C564.617 434.704 548.073 449.236 528.17 456.403C511.626 462.384 469.499 464.361 465.647 439.399C465.302 437.175 461.795 437.768 460.462 438.312C433.991 449.087 402.384 451.411 374.629 444.985C358.874 441.327 344.157 433.715 332.798 422.099C326.279 415.426 321.489 407.271 317.785 398.769C315.859 394.271 314.476 389.526 313.241 384.781C311.513 378.108 310.278 373.461 318.131 371.534C322.575 370.446 321.291 365.602 316.847 366.69H316.945Z" fill="black"/>
<path d="M427.274 392.937C416.656 386.017 405.89 381.568 393.395 379.393C381.048 377.219 369.542 375.34 364.307 362.39C354.874 339.307 373.443 309.007 393.494 298.528C437.448 275.593 470.685 364.565 434.435 386.758C430.237 389.279 436.312 391.454 439.127 389.773C460.215 376.873 458.535 347.166 451.671 326.653C443.818 303.224 424.459 285.083 398.877 291.361C372.9 297.787 354.824 326.999 355.071 352.751C355.17 364.318 360.652 373.956 370.776 379.393C376.11 382.26 382.431 383.002 388.308 383.842C400.704 385.72 411.174 390.021 421.693 396.842C424.163 398.473 430.583 394.963 427.274 392.838V392.937Z" fill="black"/>
<path d="M564.42 388.44C554.147 390.912 544.517 394.372 534.936 398.82C526.096 402.972 520.713 404.653 512.169 398.524C491.97 384.189 488.167 348.601 500.613 328.038C511.28 310.343 536.418 307.031 552.764 318.004C575.581 333.327 575.383 375.638 557.604 393.778C554.493 396.942 561.506 397.584 563.531 395.508C584.224 374.402 582.1 332.487 558.345 314.149C542.393 301.792 516.317 305.499 501.798 318.35C481.056 336.787 481.994 375.193 498.934 395.756C518.836 419.827 542.146 398.474 565.506 392.839C569.951 391.752 568.716 387.402 564.321 388.44H564.42Z" fill="black"/>
<path d="M410.236 315.877C377.888 315.086 353.59 352.01 394.581 369.063C416.706 378.256 434.633 362.439 437.646 347.709C441.547 328.531 423.62 315.778 409.101 316.075L410.236 315.927V315.877Z" fill="#231F20"/>
<path d="M547.678 341.186C539.875 334.167 531.183 331.053 522.886 330.756C497.798 329.817 483.081 348.402 496.218 369.212C502.49 379.196 506.095 381.618 515.034 382.706C524.022 383.793 537.406 380.185 544.814 375.341C552.419 365.406 560.321 352.802 544.518 341.037L547.728 341.186H547.678Z" fill="#231F20"/>
<path d="M409.546 321.264C385.248 321.264 367.914 351.366 398.336 363.081C414.732 369.408 426.881 354.876 429.449 344.051C432.758 329.964 418.633 318.793 408.015 323.291L409.546 321.215V321.264Z" fill="#231F20"/>
<path d="M546.691 355.866C545.21 345.585 535.234 337.924 524.665 336.392C514.146 334.909 502.984 339.654 498.984 354.087C494.687 369.707 515.133 379.642 526.295 378.9C540.864 377.912 550.198 362.935 544.419 355.076L546.691 355.866Z" fill="#231F20"/>
<path d="M417.052 306.685C402.78 309.898 394.582 332.388 414.237 335.156C424.855 336.689 432.362 323.837 432.214 317.263C432.066 308.663 422.04 304.066 416.46 308.069L417.052 306.685Z" fill="white"/>
<path d="M551.976 347.019C556.865 336.442 523.282 316.868 523.381 340.198C523.381 348.7 524.863 354.829 531.974 355.818C541.209 357.152 551.877 350.924 550.889 346.327L551.976 346.97V347.019Z" fill="white"/>
<path d="M390.038 350.082C383.47 349.934 377.494 359.078 385.841 362.439C390.384 364.268 394.977 359.375 395.57 356.409C396.409 352.554 392.508 349.39 389.594 350.576L390.038 350.033V350.082Z" fill="white"/>
<path d="M510.54 368.569C509.355 363.132 500.268 359.919 498.935 367.284C498.243 371.287 503.379 374.204 506.096 374.154C509.602 374.154 511.578 370.447 509.997 368.322L510.54 368.569Z" fill="white"/>
<path d="M460.313 399.957C460.708 407.767 465.894 414.687 469.746 421.212C471.03 423.436 474.734 422.25 476.068 420.767C479.574 416.714 483.278 413.006 487.723 410.041C488.612 409.497 489.155 408.311 488.908 407.322C487.328 400.995 484.562 395.558 477.845 393.878C472.265 392.494 465.993 395.608 461.104 397.832C456.659 399.858 460.61 404.109 464.363 402.379C467.474 400.946 470.635 399.414 474.043 399.216C478.981 398.919 480.809 405.642 481.648 409.2C482.043 408.311 482.438 407.372 482.833 406.432C477.895 409.695 473.796 413.946 469.944 418.394C472.018 418.246 474.141 418.098 476.265 417.949C473.055 412.512 467.919 406.136 467.573 399.512C467.376 395.558 460.066 396.547 460.264 400.007L460.313 399.957Z" fill="#231F20"/>
<path d="M463.722 394.915C465.253 402.873 466.389 439.351 483.23 411.967C491.527 398.523 475.081 392.295 465.994 398.177L463.722 394.915Z" fill="#231F20"/>
<path d="M457.648 402.032C465.204 397.979 478.489 398.968 487.675 399.956C490.885 385.375 455.278 385.918 455.92 402.774L457.648 402.032Z" fill="white"/>
<path d="M322.921 359.375C308.105 335.254 284.054 369.162 302.624 369.903C306.229 351.12 308.698 363.873 318.575 360.462L322.971 359.375H322.921Z" fill="white"/>
<path d="M465.055 441.427C468.216 430.652 470.438 418.937 475.772 409.002C476.611 407.519 469.747 408.112 468.611 410.089C463.228 420.025 461.055 431.739 457.894 442.515C457.301 444.541 464.413 443.503 465.055 441.427Z" fill="black"/>
<path d="M299.069 395.31C293.093 426.055 323.663 461.199 353.888 464.708C331.862 452.697 298.476 417.158 300.847 392.345L299.069 395.31Z" fill="white"/>
<path d="M495.427 467.081C521.602 475.137 557.456 462.434 582.643 432.678C577.211 461.643 524.664 494.069 495.773 470.195L495.476 467.081H495.427Z" fill="white"/>
<path d="M360.061 280.486C363.123 270.304 373.593 267.535 382.877 270.897C384.902 271.589 391.421 268.573 388.656 267.585C375.766 262.988 357.246 266.942 352.9 281.524C352.209 283.798 359.37 282.809 360.061 280.535V280.486Z" fill="#231F20"/>
<path d="M554.444 290.176C561.605 288.742 570.791 293.537 570.446 301.94C570.347 304.807 577.508 303.324 577.607 301.001C578.1 289.286 565.112 284.393 555.432 286.271C554.099 286.568 551.778 287.062 551.333 288.693C550.938 290.225 553.555 290.374 554.395 290.176H554.444Z" fill="#231F20"/>
<path d="M353.294 283.651C353.097 263.83 378.926 259.974 393.544 263.187C386.729 249.001 372.654 252.906 362.283 260.716C351.961 268.525 345.393 280.042 353.739 280.883L353.294 283.651Z" fill="white"/>
<path d="M550 284.837C566.347 269.514 580.867 289.286 577.953 302.137C572.57 289.978 566.792 273.666 548.716 290.175L550 284.837Z" fill="white"/>
<path d="M421.991 458.429C416.806 473.159 402.978 486.307 385.989 480.87C376.605 477.855 353.196 461.889 348.011 453.981C358.974 450.867 369.197 464.46 379.815 467.129C392.508 470.292 406.336 463.471 416.312 456.897L422.041 458.479L421.991 458.429Z" fill="#231F20"/>
<path d="M410.385 453.19C363.814 435.347 392.705 401.093 367.32 386.61C344.356 373.511 323.91 452.746 360.653 455.662C360.95 448.248 361.246 440.883 359.517 433.617C357.196 462.285 388.013 479.437 412.805 456.057L410.435 453.141L410.385 453.19Z" fill="#E84A63"/>
<path opacity="0.3" d="M372.555 408.212C373.296 379.395 342.874 402.033 344.899 423.387C346.38 438.413 367.221 459.272 389.099 448.793C371.024 434.656 377.148 426.501 373.938 411.178L372.604 408.113L372.555 408.212Z" fill="white"/>
<path d="M412.656 452.846C399.124 447.26 388.852 439.302 385.197 424.672C382.975 415.873 383.666 406.581 380.407 397.98C375.814 385.919 362.875 381.075 352.553 388.589C329.934 405.197 328.008 453.637 360.504 458.679C361.591 458.827 363.912 458.135 363.961 456.652C364.257 448.991 364.257 441.724 362.776 434.211C362.381 432.086 357.738 433.173 357.64 435.101C356.306 469.405 392.013 478.648 415.125 458.431C417.743 456.158 413.644 454.625 411.767 456.257C390.58 474.743 361.591 463.869 362.726 434.656C361.047 434.953 359.319 435.249 357.59 435.546C358.973 442.762 358.973 449.831 358.677 457.097C359.813 456.405 360.998 455.762 362.134 455.07C344.849 452.401 339.811 436.979 341.392 421.36C342.478 410.832 348.602 390.022 361.245 388.045C377.493 385.524 377.888 414.292 379.468 423.732C382.283 440.439 394.581 449.88 409.495 456.009C411.569 456.85 415.471 453.933 412.458 452.698H412.557L412.656 452.846Z" fill="#784026"/>
<path d="M363.518 394.32C375.371 390.712 375.568 427.981 378.137 437.125C369.642 433.023 367.667 382.754 350.48 408.605C351.27 401.981 358.283 394.468 364.21 394.221L363.518 394.32Z" fill="white"/>
<path d="M360.356 383.347C384.358 383.446 389.593 408.802 401.692 423.779C411.965 436.532 434.287 468.76 402.137 449.186C376.456 433.517 388.161 401.833 365.443 385.67L360.356 383.347Z" fill="#231F20"/>
<defs>
<filter id="filter0_d_731_3966" x="-4" y="0" width="1736" height="532" filterUnits="userSpaceOnUse" color-interpolation-filters="sRGB">
<feFlood flood-opacity="0" result="BackgroundImageFix"/>
<feColorMatrix in="SourceAlpha" type="matrix" values="0 0 0 0 0 0 0 0 0 0 0 0 0 0 0 0 0 0 127 0" result="hardAlpha"/>
<feOffset dy="4"/>
<feGaussianBlur stdDeviation="2"/>
<feComposite in2="hardAlpha" operator="out"/>
<feColorMatrix type="matrix" values="0 0 0 0 0 0 0 0 0 0 0 0 0 0 0 0 0 0 0.25 0"/>
<feBlend mode="normal" in2="BackgroundImageFix" result="effect1_dropShadow_731_3966"/>
<feBlend mode="normal" in="SourceGraphic" in2="effect1_dropShadow_731_3966" result="shape"/>
</filter>
</defs>
</svg>
