<svg width="1728" height="524" viewBox="0 0 1728 524" fill="none" xmlns="http://www.w3.org/2000/svg">
<g clip-path="url(#clip0_636_4801)">
<rect width="1728" height="524" fill="white"/>
<g filter="url(#filter0_d_636_4801)">
<rect width="1728" height="524" fill="#F26322"/>
</g>
<ellipse cx="426.5" cy="501.5" rx="325.5" ry="322.5" fill="#FFA614"/>
<path d="M597.21 362.149C611.846 353.535 621.629 320.266 626.994 303.355C634.056 281.149 636.107 261.472 641.235 239.622C643.366 230.613 649.717 218.957 643.326 214.097C638.435 210.383 624.509 213.544 618.355 213.939C597.881 215.203 575.434 225.556 555.078 232.707C545.847 235.947 535.867 242.111 528.371 250.567C518.864 261.314 519.929 267.596 525.255 278.265C533.066 293.951 544.309 305.963 554.289 319.436C564.033 332.554 571.016 348.24 582.298 359.501C586.441 363.611 595.514 372.975 601.51 367.483L597.171 362.149H597.21Z" fill="#AEAEAF"/>
<path d="M589.598 338.045C611.098 316.59 613.899 277.473 614.609 248.788C597.527 253.252 582.339 258.547 566.007 268.03C559.498 271.823 549.833 275.142 548.295 285.771C546.796 296.36 559.419 310.663 564.272 316.906C572.516 327.614 582.063 331.249 592.872 336.544L589.598 338.045Z" fill="#FBD2C0"/>
<g style="mix-blend-mode:multiply">
<path d="M640.446 211.528C613.7 241.399 626.087 298.02 596.658 323.229C586.953 331.566 569.28 328.365 563.284 319.08C558.392 332.475 578.59 357.17 586.756 362.938C603.167 374.476 614.607 345.039 621.432 328.089C627.783 312.403 634.568 294.227 638.79 277.909C641.156 268.742 648.573 214.176 644.194 214.334L640.446 211.528Z" fill="#AEAEAF"/>
</g>
<path d="M642.459 216.862C631.729 217.415 613.7 230.177 602.891 236.065C592.161 241.873 581.944 249.538 571.293 255.742C564.902 259.495 538.51 276.209 533.264 269.136C519.417 250.447 602.852 223.46 613.543 221.524C623.799 219.667 633.307 218.205 643.09 217.692C643.327 218.442 643.366 219.549 643.682 220.22L642.419 216.901L642.459 216.862Z" fill="white"/>
<g style="mix-blend-mode:multiply" opacity="0.73">
<path d="M611.492 273.523C601.117 276.724 591.215 277.672 581.077 283.204C572.99 287.669 565.021 294.978 557.407 289.249C540.089 276.25 577.211 265.028 585.968 260.642C592.044 257.6 603.484 249.619 609.283 249.5C621.039 249.223 611.65 263.645 615.161 272.101L611.492 273.484V273.523Z" fill="#F26322"/>
</g>
<path d="M602.181 364.401C618.04 342.906 628.02 319.041 634.648 293.279C641.63 266.134 646.877 237.211 650.27 209.395C650.467 207.656 648.376 206.708 646.917 206.945C617.645 211.884 588.492 218.483 560.168 227.452C545.335 232.154 521.705 239.345 517.444 256.651C516.577 260.207 523.953 259.378 524.742 256.138C528.727 239.74 557.406 233.537 571.135 229.586C595.869 222.434 620.92 216.626 646.325 212.319C645.22 211.489 644.116 210.699 642.972 209.869C639.855 235.236 634.648 261.077 629.165 286.048C623.129 313.549 612.911 339.429 596.146 362.188C593.424 365.902 600.169 367.127 602.181 364.401Z" fill="black"/>
<path d="M596.974 332C606.402 325.6 608.927 310.624 611.452 300.391C615.949 282.176 617.527 263.684 619.184 245.035C619.263 244.165 615.042 245.509 614.687 245.746C594.528 258.706 569.754 262.262 551.647 278.659C550.7 279.529 555.395 278.936 556.223 278.146C574.054 262.025 598.67 258.508 618.553 245.746C617.054 245.983 615.555 246.22 614.095 246.417C612.517 264.119 610.979 281.544 607.034 298.889C604.627 309.4 601.984 326.034 592.398 332.554C591.451 333.186 596.027 332.712 596.974 332.04V332Z" fill="black"/>
<path d="M617.015 524.147H198.538C204.81 470.331 215.146 410.352 231.359 364.755C232.503 361.555 233.647 358.394 234.87 355.351C235.028 354.877 235.225 354.443 235.383 354.008L234.949 354.996L232.543 360.448L232.109 361.476C232.464 358.591 232.859 355.746 233.371 352.941C237.198 331.012 245.561 311.453 257.356 294.463C264.378 284.269 272.623 274.984 281.854 266.647C332.744 220.615 412.905 203.507 479.613 220.694H479.653C491.172 223.658 502.297 227.648 512.79 232.706C514.289 233.417 528.53 238.514 545.493 251.198C545.493 251.198 545.533 251.198 545.533 251.237C563.246 264.434 583.956 285.81 596.383 319C602.064 334.212 606.048 351.914 607.152 372.46C608.218 391.505 616.66 497.555 616.975 519.761C616.975 521.223 617.015 522.685 617.015 524.147Z" fill="#88888A"/>
<path opacity="0.2" d="M327.025 248.749C307.419 285.771 270.139 406.125 265.011 456.661C262.802 478.313 260.987 500.914 259.528 524.147H207.257C210.532 492.459 213.688 463.852 216.055 442.753V442.674C216.173 441.488 216.331 440.303 216.449 439.157C219.013 416.359 224.299 390.162 231.361 364.756C231.716 363.333 232.15 361.872 232.544 360.449C233.254 357.999 233.964 355.55 234.714 353.139C241.223 331.566 248.955 311.099 257.358 294.464C259.173 290.789 261.066 287.273 262.999 283.993C262.644 278.62 271.007 272.377 281.856 266.648C300.791 256.612 327.183 248.156 327.025 248.749Z" fill="#197AA9"/>
<path d="M235.226 353.889C235.147 354.245 235.029 354.64 234.95 354.996C234.95 355.114 234.871 355.233 234.871 355.351C227.494 384.195 221.301 413.315 216.054 442.673V442.752C211.241 469.738 207.257 496.883 204.022 524.147H197C203.864 467.17 213.884 410.589 228.086 355.075C228.402 353.85 231.36 352.98 233.372 352.941C233.885 352.941 234.358 353.02 234.713 353.138C235.108 353.257 235.305 353.534 235.226 353.889Z" fill="black"/>
<path d="M617.45 524.147H610.27C608.968 480.881 607.075 437.655 604.708 394.469C603.327 369.457 603.09 343.261 596.384 319.001C593.938 310.11 590.664 301.497 586.127 293.278C575.989 274.866 561.866 261.432 545.534 251.237C545.534 251.198 545.495 251.198 545.495 251.198C524.468 238.04 499.734 230.178 475.038 223.619C473.145 223.144 477.129 221.129 479.614 220.695H479.654C480.167 220.576 480.601 220.576 480.916 220.655C514.409 229.585 550.544 240.293 575.16 266.331C599.856 292.449 607.864 326.152 610.073 361.16C613.505 415.449 615.911 469.779 617.45 524.147Z" fill="black"/>
<path d="M476.064 219.786C441.901 209.315 407.186 208.169 372.668 217.613C331.996 228.755 295.86 253.371 263.039 279.093C259.922 281.543 267.141 281.108 268.719 279.884C299.49 255.781 332.509 233.457 370.104 221.643C403.123 211.251 437.483 212.871 470.305 222.947C472.277 223.539 478.747 220.537 476.104 219.746L476.064 219.786Z" fill="black"/>
<path d="M464.347 420.152C311.639 440.066 332.35 337.335 332.705 334.174C333.454 327.299 234.437 350.65 242.997 324.454C251.282 299.127 276.766 282.018 280.79 279.055C289.153 272.97 280.08 307.424 372.509 256.809C425.608 227.768 469.041 286.483 480.324 351.559C482.77 365.823 478.193 271.113 545.336 273.444C576.304 274.511 582.931 294.188 594.924 313.035C613.544 342.392 604.352 349.544 606.956 357.446C616.029 385.184 559.143 458.637 473.46 422.562L464.347 420.073V420.152Z" fill="white"/>
<path d="M455.864 400.513C324.262 446.545 337.911 286.087 222.522 387.277C214.396 394.389 240.827 305.685 251.596 297.861C259.96 291.776 278.146 328.878 372.153 281.78C417.243 259.179 457.127 289.682 481.23 336.069C481.94 337.452 517.366 287.114 544.585 292.448C575.08 298.454 607.112 333.383 608.572 358.196C608.888 363.53 611.886 378.11 611.057 378.94C564.665 425.327 494.722 414.777 491.842 402.963C491.171 400.276 486.595 392.73 478.153 392.018C460.795 390.517 455.785 399.486 453.34 400.474H455.825L455.864 400.513Z" fill="#056A37"/>
<path d="M236.962 321.766C218.657 314.416 212.977 285.731 209.505 271.19C205.008 252.066 206.862 235.037 204.929 216.189C204.14 208.406 198.065 198.37 208.124 194.142C215.856 190.862 234.476 193.51 242.958 193.786C271.203 194.695 300.041 203.427 326.709 209.472C338.78 212.199 351.246 217.454 359.688 224.685C370.379 233.891 367.341 239.344 357.4 248.589C342.725 262.261 324.184 272.731 307.023 284.427C290.257 295.846 276.805 309.477 258.383 319.316C251.637 322.911 236.764 331.09 229.703 326.389L237.001 321.726L236.962 321.766Z" fill="#AEAEAF"/>
<path d="M251.875 300.903C229.349 285.059 234.399 255.78 239.803 234.325C260.475 237.486 278.543 241.279 297.163 248.194C304.579 250.96 316.098 253.37 315.704 261.312C315.27 269.214 296.097 280.12 288.602 284.822C275.781 292.922 262.881 295.766 248.048 299.836L251.835 300.942L251.875 300.903Z" fill="#FBD2C0"/>
<g style="mix-blend-mode:multiply">
<path d="M212.78 191.85C242.958 217.414 212.07 266.528 247.061 288.062C258.62 295.174 284.025 292.25 294.558 284.19C298.187 295.767 264.103 317.261 251.282 322.319C225.64 332.434 216.764 307.107 211.281 292.487C206.192 278.974 201.103 263.327 199.13 249.222C198.026 241.319 200.787 194.221 206.862 194.3L212.74 191.85H212.78Z" fill="#AEAEAF"/>
</g>
<path d="M208.716 196.474C223.51 196.869 245.601 207.735 259.251 212.713C272.861 217.652 285.208 224.172 298.582 229.466C306.629 232.627 339.372 246.891 348.406 240.688C372.194 224.409 262.328 201.808 247.889 200.227C234.043 198.726 221.103 197.54 207.612 197.185C207.099 197.857 206.823 198.765 206.152 199.358L208.716 196.474Z" fill="white"/>
<g style="mix-blend-mode:multiply" opacity="0.6">
<path d="M238.344 252.818C250.77 255.11 263.118 255.702 274.716 259.772C283.987 263.012 292.468 268.386 303.396 264.039C328.209 254.122 283.632 246.14 273.533 242.94C266.511 240.727 253.729 234.879 246.431 234.84C231.598 234.8 240.356 245.469 233.965 251.87L238.344 252.857V252.818Z" fill="#F26322"/>
</g>
<path d="M237.278 321.253C220.709 303.196 212.228 282.294 209.506 258.073C207.02 236.262 206.547 211.725 208.283 189.836C206.626 190.705 204.969 191.574 203.312 192.444C237.554 195.881 271.559 200.82 305.446 206.905C316.965 208.96 328.406 211.37 339.649 214.61C347.026 216.743 363.989 220.813 364.857 230.533C365.093 233.22 372.313 231.6 372.076 228.597C371.326 220.418 360.912 216.506 354.481 213.938C342.568 209.157 329.747 206.549 317.202 204.06C280.435 196.869 243.235 191.772 205.995 188.018C204.535 187.86 201.182 188.729 201.024 190.626C199.249 213.108 200.196 237.527 202.286 260.009C204.535 284.467 214.042 306.08 230.611 324.177C232.465 326.192 239.329 323.505 237.278 321.253Z" fill="black"/>
<path d="M248.757 295.451C230.019 286.6 238.382 246.14 240.513 231.639C238.974 232.152 237.475 232.666 235.937 233.18C259.172 242.939 286.274 243.176 307.852 256.729C309.312 257.638 313.849 255.583 312.586 254.793C290.692 241.042 263.511 240.687 240 230.809C238.935 230.374 235.621 230.809 235.424 232.35C233.096 248.273 224.733 288.338 244.655 297.782C246.035 298.414 250.73 296.359 248.757 295.451Z" fill="black"/>
<path d="M434.918 389.254C409.907 401.542 372.786 386.093 365.093 359.067C359.925 341.01 366.671 319.831 383.161 310.19C407.383 296.045 437.758 310.783 447.66 334.727C454.485 351.204 454.406 379.494 435.747 388.306C431.407 390.36 438.035 390.755 440.047 389.807C463.4 378.783 462.099 345.949 451.842 326.311C439.021 301.814 404.384 295.61 380.833 307.701C359.215 318.804 351.246 344.131 359.689 366.495C370.695 395.615 414.049 403.123 439.218 390.755C443.518 388.622 436.93 388.266 434.918 389.254Z" fill="black"/>
<path d="M442.098 469.462C450.895 472.821 464.189 470.371 467.74 479.973C457.641 487.322 434.997 483.608 434.918 471.952L442.137 469.462H442.098Z" fill="white"/>
<path d="M371.997 312.678C352.667 334.923 354.245 356.299 365.409 371.59C372.155 380.836 387.422 379.888 398.586 383.602C408.29 386.842 415.51 393.915 423.163 393.006C438.232 391.188 450.304 377.517 454.564 355.469C456.852 343.813 443.242 313.429 432.552 300.034C426.989 293.04 422.374 299.046 412.038 296.873C395.272 293.396 385.213 301.259 373.299 311.453L371.997 312.638V312.678Z" fill="white"/>
<path d="M495.788 337.61C493.973 348.476 493.736 357.761 495.393 366.691C497.09 375.62 500.64 384.273 506.4 393.875C513.895 402.884 512.356 409.719 524.704 406.835C538.117 403.713 563.088 395.771 569.834 386.565C574.923 369.456 574.371 354.165 570.347 341.679C565.455 317.261 537.88 299.797 511.646 312.796C503.796 315.404 502.494 324.65 498.983 332.473L495.867 337.57L495.788 337.61Z" fill="white"/>
<path d="M317.911 367.521C313.493 368.628 304.104 371.393 305.248 378.11C307.299 390.043 310.889 401.265 316.767 411.854C326.59 429.516 343.711 441.369 362.449 447.928C394.364 459.11 433.655 455.831 464.702 443.226C462.966 442.871 461.269 442.515 459.534 442.12C462.611 462.034 491.369 466.657 507.267 466.341C521.351 466.064 535.828 461.283 547.821 454.053C555.553 449.39 562.457 443.858 568.966 437.576C572.516 434.139 575.712 430.345 578.789 426.513C580.445 424.419 582.023 422.324 583.522 420.151C587.901 414.106 585.14 419.084 585.85 423.391C586.402 426.671 593.621 424.814 593.069 421.455C591.136 409.957 583.838 408.89 577.526 418.136C565.691 435.521 549.123 450.022 529.201 457.214C512.672 463.18 470.54 465.155 466.674 440.223C466.319 438.011 462.808 438.603 461.506 439.117C435.036 449.864 403.437 452.196 375.665 445.795C359.885 442.159 345.21 434.534 333.849 422.917C327.339 416.24 322.527 408.1 318.818 399.605C316.885 395.101 315.505 390.359 314.282 385.618C312.546 378.94 311.323 374.317 319.173 372.381C323.631 371.275 322.329 366.454 317.872 367.561L317.911 367.521Z" fill="black"/>
<path d="M428.251 393.757C417.639 386.842 406.87 382.378 394.364 380.204C382.017 378.031 370.497 376.135 365.251 363.214C355.822 340.139 374.403 309.873 394.443 299.402C438.39 276.485 471.645 365.387 435.391 387.554C431.21 390.082 437.285 392.256 440.086 390.557C461.191 377.676 459.495 348.002 452.631 327.495C444.78 304.104 425.411 285.968 399.808 292.251C373.811 298.652 355.743 327.851 356.02 353.573C356.138 365.15 361.582 374.752 371.72 380.204C377.046 383.049 383.397 383.8 389.275 384.669C401.662 386.526 412.156 390.833 422.689 397.669C425.174 399.289 431.604 395.812 428.291 393.678L428.251 393.757Z" fill="black"/>
<path d="M565.416 389.293C555.159 391.782 545.494 395.22 535.947 399.685C527.11 403.833 521.706 405.493 513.185 399.408C492.987 385.065 489.2 349.544 501.626 328.958C512.277 311.296 537.446 307.977 553.778 318.922C576.58 334.253 576.422 376.491 558.63 394.627C555.514 397.788 562.536 398.42 564.548 396.366C585.258 375.266 583.128 333.384 559.38 315.05C543.403 302.722 517.366 306.397 502.849 319.238C482.099 337.651 483.046 376.057 499.969 396.603C519.852 420.666 543.166 399.329 566.56 393.679C571.017 392.612 569.794 388.226 565.376 389.293H565.416Z" fill="black"/>
<g opacity="0.8">
<path d="M411.21 316.747C378.862 315.957 354.561 352.861 395.549 369.891C417.68 379.058 435.629 363.253 438.627 348.555C442.533 329.391 424.623 316.668 410.066 316.945L411.21 316.787V316.747Z" fill="#231F20"/>
</g>
<g opacity="0.8">
<path d="M548.651 342.035C540.84 335.042 532.161 331.92 523.838 331.604C498.748 330.656 484.033 349.227 497.17 370.049C503.442 380.006 507.072 382.456 515.987 383.523C524.982 384.59 538.355 380.994 545.771 376.174C553.385 366.256 561.275 353.652 545.456 341.917L548.691 342.075L548.651 342.035Z" fill="#231F20"/>
</g>
<path d="M410.499 322.161C386.198 322.161 368.84 352.229 399.295 363.964C415.706 370.286 427.856 355.785 430.421 344.959C433.734 330.893 419.612 319.711 408.96 324.215L410.499 322.161Z" fill="#231F20"/>
<path d="M547.664 356.734C546.165 346.461 536.224 338.796 525.651 337.294C515.118 335.793 503.954 340.534 499.97 354.996C495.67 370.603 516.144 380.521 527.308 379.77C541.865 378.782 551.214 363.807 545.415 355.984L547.664 356.774V356.734Z" fill="#231F20"/>
<path d="M418.034 307.581C403.754 310.781 395.548 333.263 415.234 336.029C425.845 337.57 433.341 324.729 433.222 318.17C433.065 309.596 423.044 304.973 417.443 308.964L418.034 307.581Z" fill="white"/>
<path d="M552.95 347.884C557.842 337.335 524.271 317.776 524.349 341.088C524.349 349.583 525.849 355.708 532.949 356.696C542.18 358.039 552.832 351.796 551.846 347.213L552.95 347.845V347.884Z" fill="white"/>
<path d="M390.971 350.965C384.383 350.807 378.427 359.974 386.79 363.332C391.326 365.15 395.942 360.29 396.534 357.326C397.362 353.454 393.457 350.333 390.537 351.518L390.971 350.965Z" fill="white"/>
<path d="M511.529 369.417C510.345 364.004 501.232 360.764 499.93 368.153C499.22 372.143 504.388 375.067 507.071 375.028C510.582 375.028 512.554 371.314 510.976 369.18L511.529 369.417Z" fill="white"/>
<path d="M461.27 400.791C461.664 408.575 466.872 415.489 470.698 422.009C472 424.222 475.708 423.036 477.01 421.574C480.521 417.544 484.229 413.83 488.687 410.867C489.555 410.313 490.107 409.128 489.871 408.14C488.293 401.818 485.531 396.366 478.825 394.706C473.262 393.323 466.951 396.445 462.059 398.657C457.601 400.672 461.546 404.94 465.333 403.201C468.45 401.779 471.606 400.238 475.038 400.04C479.969 399.724 481.783 406.441 482.651 410.037C483.046 409.128 483.44 408.219 483.835 407.271C478.904 410.55 474.801 414.778 470.935 419.204C473.026 419.046 475.156 418.927 477.247 418.769C474.012 413.316 468.884 406.955 468.568 400.356C468.371 396.405 461.073 397.393 461.27 400.83V400.791Z" fill="#231F20"/>
<path d="M464.663 395.772C466.202 403.714 467.306 440.184 484.19 412.802C492.475 399.368 476.064 393.125 466.951 399.012L464.663 395.772Z" fill="#231F20"/>
<path d="M458.588 402.884C466.163 398.853 479.457 399.841 488.609 400.829C491.805 386.249 456.221 386.802 456.853 403.634L458.588 402.884Z" fill="white"/>
<path d="M323.869 360.251C309.036 336.149 285.011 370.011 303.552 370.761C307.182 351.993 309.628 364.756 319.49 361.318L323.869 360.251Z" fill="white"/>
<path d="M466.004 442.238C469.16 431.491 471.369 419.756 476.734 409.838C477.563 408.337 470.698 408.93 469.594 410.945C464.189 420.862 462.02 432.597 458.864 443.345C458.272 445.36 465.373 444.332 466.004 442.238Z" fill="black"/>
<path d="M300.002 396.167C294.006 426.907 324.618 461.994 354.836 465.511C332.784 453.499 299.41 417.978 301.777 393.204L300.002 396.167Z" fill="white"/>
<path d="M496.38 467.882C522.535 475.942 558.395 463.219 583.603 433.506C578.159 462.429 525.612 494.869 496.696 471.003L496.38 467.882Z" fill="white"/>
<path d="M360.99 281.426C364.067 271.232 374.521 268.505 383.831 271.824C385.843 272.536 392.391 269.493 389.63 268.505C376.73 263.922 358.228 267.873 353.85 282.414C353.14 284.705 360.319 283.678 361.029 281.426H360.99Z" fill="#231F20"/>
<path d="M555.436 291.106C562.616 289.684 571.807 294.465 571.452 302.842C571.334 305.726 578.514 304.224 578.632 301.893C579.145 290.198 566.127 285.298 556.461 287.195C555.12 287.471 552.793 287.985 552.359 289.605C551.964 291.146 554.568 291.265 555.436 291.067V291.106Z" fill="#231F20"/>
<path d="M354.245 284.585C354.047 264.79 379.887 260.917 394.483 264.157C387.658 249.973 373.575 253.884 363.239 261.668C352.903 269.452 346.355 280.99 354.679 281.819L354.245 284.585Z" fill="white"/>
<path d="M550.978 285.772C567.349 270.481 581.827 290.197 578.947 303.078C573.582 290.948 567.783 274.629 549.715 291.106L550.978 285.772Z" fill="white"/>
<g style="mix-blend-mode:multiply" opacity="0.4">
<path d="M422.965 459.229C417.797 473.967 403.951 487.085 386.948 481.633C377.559 478.63 354.166 462.667 348.958 454.765C359.925 451.643 370.143 465.235 380.755 467.883C393.457 471.044 407.264 464.247 417.245 457.649L422.965 459.229Z" fill="#231F20"/>
</g>
<path d="M411.328 453.973C364.738 436.153 393.655 401.936 368.249 387.435C345.29 374.356 324.816 453.538 361.582 456.462C361.898 449.073 362.174 441.685 360.438 434.454C358.111 463.1 388.96 480.248 413.734 456.897L411.367 453.973H411.328Z" fill="#E84A63"/>
<path opacity="0.3" d="M373.496 409.049C374.246 380.244 343.791 402.885 345.842 424.221C347.302 439.236 368.171 460.059 390.025 449.628C371.958 435.482 378.072 427.343 374.838 412.052L373.496 409.009V409.049Z" fill="white"/>
<path d="M413.615 453.657C400.084 448.086 389.827 440.144 386.159 425.525C383.95 416.713 384.62 407.468 381.346 398.854C376.77 386.803 363.83 381.943 353.495 389.49C330.851 406.085 328.957 454.487 361.463 459.544C362.568 459.703 364.896 458.991 364.935 457.529C365.211 449.864 365.211 442.633 363.752 435.087C363.357 432.953 358.702 434.059 358.623 435.995C357.282 470.292 393.023 479.498 416.14 459.307C418.744 457.016 414.641 455.514 412.787 457.134C391.603 475.626 362.608 464.721 363.752 435.561C362.055 435.877 360.319 436.153 358.623 436.469C360.004 443.661 360.004 450.733 359.728 458.003C360.872 457.332 362.055 456.66 363.199 455.988C345.921 453.302 340.871 437.931 342.449 422.324C343.514 411.814 349.668 391.031 362.292 389.055C378.545 386.526 378.939 415.291 380.517 424.695C383.358 441.408 395.626 450.812 410.538 456.937C412.59 457.766 416.495 454.843 413.497 453.618L413.615 453.657Z" fill="#784026"/>
<path d="M364.461 395.141C376.296 391.546 376.532 428.766 379.057 437.933C370.576 433.824 368.603 383.604 351.403 409.445C352.192 402.807 359.214 395.299 365.132 395.062L364.461 395.141Z" fill="white"/>
<g style="mix-blend-mode:multiply" opacity="0.4">
<path d="M361.306 384.196C385.291 384.275 390.538 409.642 402.649 424.617C412.945 437.379 435.234 469.581 403.083 449.983C377.401 434.337 389.118 402.648 366.395 386.527L361.306 384.196Z" fill="#231F20"/>
</g>
<path d="M1127.5 43L1038 0H1213L1127.5 43Z" fill="#FBF9BA"/>
</g>
<defs>
<filter id="filter0_d_636_4801" x="-4" y="0" width="1736" height="532" filterUnits="userSpaceOnUse" color-interpolation-filters="sRGB">
<feFlood flood-opacity="0" result="BackgroundImageFix"/>
<feColorMatrix in="SourceAlpha" type="matrix" values="0 0 0 0 0 0 0 0 0 0 0 0 0 0 0 0 0 0 127 0" result="hardAlpha"/>
<feOffset dy="4"/>
<feGaussianBlur stdDeviation="2"/>
<feComposite in2="hardAlpha" operator="out"/>
<feColorMatrix type="matrix" values="0 0 0 0 0 0 0 0 0 0 0 0 0 0 0 0 0 0 0.25 0"/>
<feBlend mode="normal" in2="BackgroundImageFix" result="effect1_dropShadow_636_4801"/>
<feBlend mode="normal" in="SourceGraphic" in2="effect1_dropShadow_636_4801" result="shape"/>
</filter>
<clipPath id="clip0_636_4801">
<rect width="1728" height="524" fill="white"/>
</clipPath>
</defs>
</svg>
